<?xml version="1.0" encoding="utf-8"?>
<!-- Generator: Adobe Illustrator 23.0.2, SVG Export Plug-In . SVG Version: 6.00 Build 0)  -->
<svg version="1.1" id="Layer_1" xmlns="http://www.w3.org/2000/svg" xmlns:xlink="http://www.w3.org/1999/xlink" x="0px" y="0px"
	 viewBox="0 0 140 140" style="enable-background:new 0 0 140 140;" xml:space="preserve">
<style type="text/css">
	.st0{fill:#FFF6CC;}
	.st1{fill:#7E7E82;}
</style>
<g>
	<g>
		<path class="st0" d="M70,0C31.34,0,0,31.34,0,70c0,38.66,31.34,70,70,70s70-31.34,70-70C140,31.34,108.66,0,70,0z M108.46,77.6
			c-2.01,2.62-3.58,7.45-3.49,10.75l0.72,26.04c0.09,3.3-2.38,5.09-5.49,3.99l-24.54-8.73c-3.11-1.11-8.2-1.11-11.31,0l-24.54,8.73
			c-3.11,1.11-5.58-0.69-5.49-3.99l0.72-26.04c0.09-3.3-1.48-8.14-3.49-10.75L15.66,56.96c-2.01-2.62-1.07-5.52,2.1-6.45l24.98-7.36
			c3.17-0.93,7.28-3.92,9.15-6.65l14.72-21.48c1.87-2.72,4.92-2.72,6.78,0L88.12,36.5c1.87,2.72,5.98,5.71,9.15,6.65l24.98,7.36
			c3.17,0.93,4.11,3.84,2.1,6.45L108.46,77.6z"/>
	</g>
</g>
<g>
	<path class="st1" d="M47.17,63.04c-0.6-0.35-1.07-0.85-1.39-1.51c-0.32-0.65-0.49-1.42-0.49-2.3s0.16-1.65,0.49-2.3
		c0.32-0.65,0.79-1.15,1.39-1.5c0.6-0.35,1.31-0.52,2.13-0.52c0.58,0,1.11,0.09,1.61,0.27c0.5,0.18,0.92,0.44,1.26,0.77l-0.43,0.91
		c-0.39-0.33-0.78-0.56-1.17-0.71c-0.39-0.14-0.81-0.22-1.25-0.22c-0.88,0-1.56,0.28-2.03,0.85c-0.48,0.57-0.71,1.38-0.71,2.44
		c0,1.06,0.24,1.87,0.71,2.44c0.48,0.57,1.15,0.86,2.03,0.86c0.45,0,0.87-0.07,1.25-0.22c0.39-0.14,0.78-0.38,1.17-0.71l0.43,0.91
		c-0.34,0.34-0.76,0.59-1.26,0.77c-0.5,0.18-1.03,0.27-1.61,0.27C48.48,63.57,47.77,63.39,47.17,63.04z"/>
	<path class="st1" d="M59.65,55.01h1.22v8.46h-1.22v-3.79h-4.73v3.79H53.7v-8.46h1.22v3.66h4.73V55.01z"/>
	<path class="st1" d="M64.4,63.04c-0.59-0.35-1.04-0.85-1.36-1.5c-0.32-0.65-0.48-1.41-0.48-2.29c0-0.89,0.16-1.66,0.47-2.31
		c0.32-0.65,0.77-1.15,1.36-1.5c0.59-0.35,1.29-0.52,2.09-0.52c0.81,0,1.51,0.17,2.1,0.52c0.59,0.35,1.05,0.85,1.36,1.5
		c0.32,0.65,0.47,1.42,0.47,2.3s-0.16,1.65-0.47,2.3c-0.32,0.65-0.77,1.15-1.36,1.51c-0.59,0.35-1.29,0.53-2.1,0.53
		C65.68,63.57,64.99,63.39,64.4,63.04z M68.46,61.7c0.47-0.58,0.71-1.4,0.71-2.46s-0.23-1.88-0.7-2.45
		c-0.47-0.57-1.13-0.86-1.99-0.86c-0.84,0-1.49,0.29-1.96,0.86c-0.47,0.57-0.7,1.39-0.7,2.45s0.23,1.88,0.7,2.46
		c0.47,0.58,1.12,0.86,1.96,0.86C67.33,62.56,67.99,62.27,68.46,61.7z"/>
	<path class="st1" d="M73.65,63.04c-0.59-0.35-1.04-0.85-1.36-1.5c-0.32-0.65-0.48-1.41-0.48-2.29c0-0.89,0.16-1.66,0.47-2.31
		c0.32-0.65,0.77-1.15,1.36-1.5c0.59-0.35,1.29-0.52,2.09-0.52c0.81,0,1.51,0.17,2.1,0.52c0.59,0.35,1.05,0.85,1.36,1.5
		c0.32,0.65,0.47,1.42,0.47,2.3s-0.16,1.65-0.47,2.3c-0.32,0.65-0.77,1.15-1.36,1.51s-1.29,0.53-2.1,0.53
		C74.93,63.57,74.24,63.39,73.65,63.04z M77.71,61.7c0.47-0.58,0.71-1.4,0.71-2.46s-0.23-1.88-0.7-2.45s-1.13-0.86-1.99-0.86
		c-0.84,0-1.49,0.29-1.96,0.86c-0.47,0.57-0.7,1.39-0.7,2.45s0.23,1.88,0.7,2.46c0.47,0.58,1.12,0.86,1.96,0.86
		C76.58,62.56,77.24,62.27,77.71,61.7z"/>
	<path class="st1" d="M82.32,63.31c-0.55-0.18-1.02-0.44-1.41-0.78l0.44-0.91c0.42,0.34,0.85,0.58,1.29,0.73s0.94,0.22,1.49,0.22
		c0.63,0,1.12-0.12,1.46-0.35c0.34-0.24,0.52-0.57,0.52-1c0-0.37-0.16-0.64-0.48-0.82c-0.32-0.18-0.83-0.35-1.54-0.51
		c-0.67-0.14-1.22-0.31-1.66-0.49s-0.77-0.43-1.01-0.75s-0.37-0.72-0.37-1.21c0-0.5,0.13-0.93,0.39-1.31s0.63-0.67,1.11-0.88
		s1.04-0.32,1.67-0.32c0.59,0,1.15,0.09,1.67,0.27c0.52,0.18,0.95,0.44,1.29,0.77l-0.43,0.91c-0.39-0.32-0.79-0.56-1.21-0.71
		c-0.41-0.16-0.85-0.23-1.31-0.23c-0.61,0-1.09,0.13-1.43,0.38c-0.35,0.25-0.52,0.6-0.52,1.05c0,0.38,0.15,0.67,0.46,0.87
		c0.3,0.2,0.79,0.37,1.46,0.53c0.71,0.16,1.27,0.33,1.71,0.5c0.44,0.17,0.78,0.41,1.04,0.71c0.26,0.3,0.39,0.69,0.39,1.17
		c0,0.49-0.13,0.92-0.39,1.28c-0.26,0.37-0.63,0.65-1.12,0.85c-0.48,0.2-1.06,0.3-1.72,0.3C83.47,63.57,82.86,63.48,82.32,63.31z"/>
	<path class="st1" d="M88.87,63.47v-8.46h5.5v1h-4.28v2.66h4.04v1.01h-4.04v2.8h4.28v1H88.87z"/>
	<path class="st1" d="M60.87,69.41l-3.37,4.51v3.95h-1.24v-3.95l-3.37-4.51h1.42l2.58,3.49l2.58-3.49H60.87z"/>
	<path class="st1" d="M62.56,77.44c-0.59-0.35-1.04-0.85-1.36-1.5c-0.32-0.65-0.48-1.41-0.48-2.29c0-0.89,0.16-1.66,0.47-2.31
		c0.32-0.65,0.77-1.15,1.36-1.5c0.59-0.35,1.29-0.52,2.09-0.52c0.81,0,1.51,0.17,2.1,0.52c0.59,0.35,1.05,0.85,1.36,1.5
		c0.32,0.65,0.47,1.42,0.47,2.3c0,0.88-0.16,1.65-0.47,2.3c-0.32,0.65-0.77,1.15-1.36,1.51c-0.59,0.35-1.29,0.53-2.1,0.53
		C63.85,77.97,63.15,77.79,62.56,77.44z M66.63,76.1c0.47-0.58,0.71-1.4,0.71-2.46c0-1.06-0.23-1.88-0.7-2.46
		c-0.47-0.57-1.13-0.86-1.99-0.86c-0.84,0-1.49,0.29-1.96,0.86c-0.47,0.57-0.7,1.39-0.7,2.46c0,1.06,0.23,1.88,0.7,2.46
		c0.47,0.58,1.12,0.86,1.96,0.86C65.49,76.96,66.15,76.67,66.63,76.1z"/>
	<path class="st1" d="M71.08,77.09c-0.58-0.58-0.88-1.44-0.88-2.58v-5.1h1.22v5.18c0,0.78,0.19,1.36,0.56,1.76
		c0.37,0.4,0.93,0.6,1.66,0.6c0.73,0,1.28-0.2,1.66-0.6c0.38-0.4,0.56-0.99,0.56-1.76v-5.18h1.22v5.1c0,1.13-0.29,1.99-0.88,2.57
		c-0.59,0.59-1.44,0.88-2.56,0.88C72.52,77.97,71.66,77.68,71.08,77.09z"/>
	<path class="st1" d="M85.86,77.87h-1.37l-1.44-2.71c-0.16-0.29-0.35-0.49-0.57-0.61c-0.22-0.12-0.51-0.17-0.87-0.17h-1.39v3.49H79
		v-8.46h3.6c0.94,0,1.65,0.21,2.14,0.62c0.49,0.42,0.74,1.02,0.74,1.82c0,0.65-0.18,1.18-0.55,1.6c-0.36,0.42-0.88,0.68-1.55,0.79
		c0.42,0.13,0.76,0.44,1.03,0.94L85.86,77.87z M82.45,73.39c0.62,0,1.09-0.12,1.39-0.37c0.3-0.24,0.45-0.62,0.45-1.13
		c0-0.51-0.15-0.89-0.44-1.12s-0.76-0.35-1.39-0.35h-2.24v2.98H82.45z"/>
	<path class="st1" d="M63.06,88.65c0.27,0.35,0.4,0.79,0.4,1.32c0,0.73-0.25,1.29-0.75,1.7s-1.2,0.61-2.09,0.61h-3.67v-8.46h3.54
		c0.87,0,1.55,0.19,2.05,0.58c0.49,0.39,0.74,0.93,0.74,1.62c0,0.45-0.12,0.84-0.35,1.16c-0.24,0.33-0.57,0.57-0.99,0.73
		C62.41,88.05,62.79,88.3,63.06,88.65z M58.15,87.47h2.14c1.18,0,1.78-0.45,1.78-1.34c0-0.45-0.15-0.78-0.44-1s-0.74-0.32-1.34-0.32
		h-2.14V87.47z M61.84,90.94c0.29-0.22,0.43-0.57,0.43-1.04c0-0.48-0.15-0.84-0.44-1.07s-0.74-0.35-1.35-0.35h-2.33v2.81h2.33
		C61.1,91.28,61.55,91.17,61.84,90.94z"/>
	<path class="st1" d="M65.08,92.27v-8.46h1.24v8.46H65.08z"/>
	<path class="st1" d="M74.75,92.27l-0.9-2.09h-4.28l-0.9,2.09h-1.25l3.77-8.46h1.03l3.77,8.46H74.75z M69.99,89.2h3.44l-1.72-4.01
		L69.99,89.2z"/>
	<path class="st1" d="M77.97,92.11c-0.55-0.18-1.02-0.44-1.41-0.78l0.44-0.91c0.42,0.34,0.85,0.58,1.29,0.73
		c0.44,0.15,0.94,0.22,1.49,0.22c0.63,0,1.12-0.12,1.46-0.35s0.52-0.57,0.52-1c0-0.37-0.16-0.64-0.48-0.82
		c-0.32-0.18-0.83-0.35-1.54-0.51c-0.67-0.14-1.22-0.31-1.66-0.49c-0.43-0.18-0.77-0.43-1.01-0.75c-0.24-0.32-0.37-0.72-0.37-1.21
		c0-0.5,0.13-0.93,0.39-1.31s0.63-0.67,1.11-0.88s1.04-0.32,1.67-0.32c0.59,0,1.15,0.09,1.67,0.27c0.52,0.18,0.95,0.44,1.29,0.77
		l-0.43,0.91c-0.39-0.32-0.79-0.56-1.21-0.71c-0.41-0.16-0.85-0.23-1.31-0.23c-0.61,0-1.09,0.12-1.43,0.38
		c-0.35,0.25-0.52,0.6-0.52,1.05c0,0.38,0.15,0.67,0.46,0.87c0.3,0.2,0.79,0.38,1.46,0.54c0.71,0.16,1.27,0.33,1.71,0.5
		c0.44,0.17,0.78,0.41,1.04,0.71c0.26,0.3,0.39,0.69,0.39,1.17c0,0.49-0.13,0.92-0.39,1.28c-0.26,0.37-0.63,0.65-1.12,0.85
		c-0.48,0.2-1.06,0.3-1.72,0.3C79.12,92.37,78.52,92.28,77.97,92.11z"/>
</g>
</svg>
