<?xml version="1.0" encoding="utf-8"?>
<!-- Generator: Adobe Illustrator 23.0.2, SVG Export Plug-In . SVG Version: 6.00 Build 0)  -->
<svg version="1.1" id="Layer_1" xmlns="http://www.w3.org/2000/svg" xmlns:xlink="http://www.w3.org/1999/xlink" x="0px" y="0px"
	 viewBox="0 0 100 100" style="enable-background:new 0 0 100 100;" xml:space="preserve">
<path d="M100,5.05C100,2.27,97.73,0,94.95,0H5.05C2.27,0,0,2.27,0,5.05v89.91C0,97.73,2.27,100,5.05,100h89.91
	c2.78,0,5.05-2.27,5.05-5.05V5.05H100z M90,9v30H67V9H90z M62,9v52H38V9H62z M33,9v14H10V9H33z M10,91V29h23v62H10z M38,91V68h24v23
	H38z M67,91V45h23v46H67z"/>
</svg>
