<?xml version="1.0" encoding="utf-8"?>
<!-- Generator: Adobe Illustrator 23.0.2, SVG Export Plug-In . SVG Version: 6.00 Build 0)  -->
<svg version="1.1" id="Layer_1" xmlns="http://www.w3.org/2000/svg" xmlns:xlink="http://www.w3.org/1999/xlink" x="0px" y="0px"
	 viewBox="0 0 100 100" style="enable-background:new 0 0 100 100;" xml:space="preserve">
<path d="M36.24,29.38c-0.23-1.66-0.36-3.34-0.59-5c-0.13-0.91-1.03-1.56-1.92-1.49c-0.85,0.07-1.44,0.72-1.43,1.63
	c0.04,0.33,0.11,0.7,0.14,1.07c0.66,8.27,2.76,16.17,6.25,23.69c0.84,1.8,1.83,3.52,2.79,5.26c0.46,0.83,1.22,1.08,2.11,0.79
	c0.77-0.25,1.23-0.85,1.1-1.65c-0.07-0.46-0.5-0.85-0.74-1.29C39.97,45.2,37.37,37.53,36.24,29.38z M24.91,27.79
	c-0.1-0.73-0.35-1.05-1.16-1.03c-2.98,0.05-5.97,0.02-8.95,0.02c-0.3,0-0.6,0.04-1.02,0.07C14.7,34.04,16.7,40.66,22,45.84
	c2.77,2.71,6.07,4.52,10.05,5.59c-0.6-1.3-1.1-2.35-1.57-3.41C27.67,41.54,25.91,34.77,24.91,27.79z M94.95,0H5.05
	C2.27,0,0,2.27,0,5.05v89.91C0,97.73,2.27,100,5.05,100h89.91c2.78,0,5.05-2.27,5.05-5.05V5.05C100,2.27,97.73,0,94.95,0z
	 M92.96,25.36c-0.63,4.53-1.65,8.95-3.49,13.16c-3.91,8.92-10.54,14.61-20.06,16.83c-0.98,0.23-1.6,0.67-2.14,1.51
	c-2.78,4.29-6.11,8.1-10.1,11.31c-0.3,0.24-0.58,0.7-0.59,1.07c-0.06,1.68-0.06,3.36,0,5.04c0.01,0.29,0.34,0.78,0.59,0.83
	c3.36,0.64,5.22,2.66,5.7,6.01c0.02,0.17,0.07,0.33,0.13,0.61c0.41,0,0.81,0,1.21,0c4.67,0,9.33,0,14,0c1.43,0,1.74,0.32,1.76,1.75
	c0.04,3.27,0.04,3.27-3.24,3.27c-0.51,0-1.01,0-1.64,0c0,0.78,0,1.42,0,2.06c-0.01,1.29-0.44,1.73-1.71,1.74
	c-2.54,0.01-5.08,0-7.62,0c-12.21,0-24.42,0-36.64,0c-1.73,0-2.08-0.36-2.09-2.12c0-0.51,0-1.02,0-1.68c-0.95,0-1.79,0.02-2.64,0
	c-1.21-0.03-1.53-0.35-1.54-1.54c-0.01-0.65-0.01-1.3,0-1.96c0.02-1.2,0.33-1.52,1.53-1.52c4.49-0.01,8.99-0.03,13.48,0.02
	c0.93,0.01,1.3-0.21,1.44-1.17c0.4-2.79,2.52-4.91,5.33-5.39c0.71-0.12,0.88-0.41,0.87-1.07c-0.04-1.65,0.04-3.3-0.04-4.94
	c-0.02-0.47-0.29-1.06-0.64-1.37c-3.72-3.25-6.96-6.9-9.68-11.02c-0.26-0.39-0.81-0.72-1.29-0.82C26.69,54.52,20.51,51.42,16,45.49
	c-3.51-4.61-5.33-9.92-6.32-15.56c-0.25-1.42-0.45-2.84-0.59-4.27c-0.2-1.9,0.6-2.76,2.5-2.76c3.91-0.01,7.82,0,11.73,0
	c0.27,0,0.54-0.02,0.98-0.04c-0.24-2.58-0.47-5.05-0.7-7.64c-1.05,0-2.07,0-3.09,0c-1.9-0.01-3.01-0.96-3.02-2.59
	c-0.01-1.66,1.02-2.56,3.01-2.56c16.12-0.01,32.24,0,48.37,0c4.29,0,8.58-0.01,12.86,0.01c1.61,0.01,2.64,0.81,2.81,2.13
	c0.22,1.71-0.81,2.94-2.56,3c-1.02,0.04-2.04,0.01-3.17,0.01c-0.23,2.57-0.45,5.04-0.69,7.69c0.5,0,0.9,0,1.3,0
	c3.77,0,7.55-0.01,11.32,0.01C92.39,22.92,93.18,23.79,92.96,25.36z M78.6,26.76c-0.72-0.01-0.99,0.2-1.11,0.95
	c-1.2,7.82-3.14,15.42-6.54,22.61c-0.05,0.1-0.05,0.23-0.08,0.38c1.82-0.38,4.77-1.89,6.72-3.4c4.68-3.59,7.41-8.46,9.07-14
	c0.62-2.08,1.06-4.22,1.61-6.45c-0.54-0.04-0.84-0.08-1.14-0.08C84.29,26.77,81.45,26.8,78.6,26.76z"/>
</svg>
