<?xml version="1.0" encoding="utf-8"?>
<!-- Generator: Adobe Illustrator 22.1.0, SVG Export Plug-In . SVG Version: 6.00 Build 0)  -->
<svg version="1.1" id="Layer_1" xmlns="http://www.w3.org/2000/svg" xmlns:xlink="http://www.w3.org/1999/xlink" x="0px" y="0px"
	 viewBox="0 0 16 16" style="enable-background:new 0 0 16 16;" xml:space="preserve">
<style type="text/css">
	.st0{fill:#FFFFFF;}
</style>
<circle cx="8" cy="8" r="8"/>
<g id="maknae">
	<path class="st0" d="M13.6,8c-0.1-0.1-0.7-1.2-0.7-1.4c-0.6-2-2.3-3.4-4.4-3.6C8.2,3,8,2.8,8.1,2.6c0-0.2,0.1-0.5,0.1-0.7
		C8,1.7,7.8,1.5,7.6,1.4C7.2,1.9,7.2,2.4,7.3,3c0,0-0.1,0-0.1,0c0,0-0.1,0-0.1,0C4.9,3.5,3.5,4.9,3,7.1C2.9,7.4,2.8,7.6,2.6,7.7
		c-0.5,0.4-0.7,1-0.6,1.6c0.2,0.7,0.6,1.1,1.3,1.2c0.3,0.1,0.4,0.2,0.5,0.3c1,1.5,2.5,2.3,4.3,2.3c1.8,0,3.1-0.9,4.1-2.3
		c0.1-0.2,0.2-0.2,0.4-0.3C13.9,10.4,14.4,8.9,13.6,8z M12.4,9.8c-0.4,0-0.5,0.2-0.7,0.5c-0.9,1.4-2.2,2.1-3.9,2.1
		c-1.6-0.1-2.8-0.9-3.6-2.3C4.1,9.9,4,9.8,3.8,9.8c-0.6,0-0.9-0.3-0.9-0.7C2.8,8.7,3,8.3,3.5,8.1c0.1,0,0.2-0.2,0.2-0.3
		c0.2-2,1.5-3.5,3.4-3.9C7.4,3.8,7.7,3.8,8,3.8c2.3,0,4.1,1.7,4.3,4c0,0.2,0.1,0.3,0.2,0.3C13,8.3,13.2,8.6,13.2,9
		C13.1,9.4,12.8,9.8,12.4,9.8z"/>
	<path class="st0" d="M6.8,9.3C6.6,9.5,6.4,9.7,6.2,9.9c1,1,2.6,1,3.6,0C9.6,9.7,9.4,9.5,9.2,9.3C8.4,10,7.6,10,6.8,9.3z"/>
	<path class="st0" d="M6.7,8.1c0.3,0,0.4-0.2,0.4-0.4c0-0.2-0.2-0.4-0.4-0.4c-0.3,0-0.4,0.1-0.4,0.4C6.3,7.9,6.5,8.1,6.7,8.1z"/>
	<path class="st0" d="M9.3,8.1c0.2,0,0.4-0.2,0.4-0.4c0-0.2-0.2-0.4-0.4-0.4c-0.2,0-0.4,0.2-0.4,0.4C8.9,7.9,9.1,8.1,9.3,8.1z"/>
</g>
</svg>
