<?xml version="1.0" encoding="utf-8"?>
<!-- Generator: Adobe Illustrator 22.1.0, SVG Export Plug-In . SVG Version: 6.00 Build 0)  -->
<svg version="1.1" id="Layer_1" xmlns="http://www.w3.org/2000/svg" xmlns:xlink="http://www.w3.org/1999/xlink" x="0px" y="0px"
	 viewBox="0 0 16 16" style="enable-background:new 0 0 16 16;" xml:space="preserve">
<style type="text/css">
	.st0{fill:#FFFFFF;}
</style>
<circle cx="8" cy="8" r="8"/>
<g id="visual">
	<path class="st0" d="M9.6,8.7c1.4-0.6,2.2-2.1,2.1-3.6c-0.2-1.4-1.2-2.6-2.5-3C8.9,2.1,8.7,2,8.5,2C8.3,2,8.1,2,7.9,2
		C7.8,2,7.7,2,7.6,2c-2.4,0.4-3.7,3-2.5,5.1C5.5,7.9,6,8.4,6.7,8.7c0.4,0.2,0.6,0.4,0.6,0.9c0,0.6,0,1.1,0,1.7
		c0,0.3-0.1,0.5-0.2,0.8c-0.4,0.7-0.1,1.6,0.7,1.9C7.9,14,8,14,8.1,14c0,0,0.1,0,0.1,0c0,0,0.1,0,0.1,0c0.9-0.1,1.4-1.1,1-1.9
		c-0.1-0.3-0.2-0.5-0.2-0.8c0-0.6,0-1.1,0-1.7C9,9.1,9.2,8.9,9.6,8.7z M8.7,11.7c0,0.2,0.1,0.3,0.1,0.5c0.1,0.2,0.2,0.5,0.1,0.8
		c-0.1,0.4-0.6,0.7-1,0.5c-0.4-0.1-0.6-0.6-0.5-1c0-0.1,0.1-0.2,0.1-0.2c0.1-0.2,0.1-0.3,0.1-0.5c0-0.9,0-1.7,0-2.6
		c0-0.3-0.1-0.5-0.4-0.6C7.2,8.3,7,8.3,6.9,8.2c-1.1-0.5-1.8-1.7-1.7-3c0.2-1.3,1.2-2.3,2.4-2.6c0.2,0,0.3,0,0.5,0
		c1.5,0,2.8,1.2,3,2.7c0.1,1.3-0.6,2.4-1.7,3C9.2,8.3,9.1,8.4,8.9,8.5C8.7,8.6,8.7,8.8,8.7,9C8.7,9.9,8.6,10.8,8.7,11.7z"/>
	<path class="st0" d="M4.7,8.5C4.5,9.2,4,9.7,3.3,9.9c0.7,0.2,1.2,0.7,1.4,1.4c0.3-0.7,0.7-1.2,1.5-1.4C5.4,9.7,4.9,9.2,4.7,8.5z
		 M4.7,10.6C4.6,10.3,4.4,10,4,9.9c0.3-0.1,0.6-0.3,0.7-0.7C4.8,9.6,5,9.8,5.4,9.9C5.1,10,4.8,10.3,4.7,10.6z"/>
	<path class="st0" d="M4.2,7.2c-0.5-0.1-0.8-0.5-1-1c-0.2,0.6-0.5,0.9-1,1c0.5,0.1,0.8,0.5,1,1C3.4,7.7,3.7,7.3,4.2,7.2z"/>
	<path class="st0" d="M11.7,10c-0.2,0.8-0.7,1.2-1.4,1.5c0.7,0.2,1.2,0.7,1.4,1.4c0.2-0.7,0.8-1.3,1.5-1.4
		C12.4,11.3,11.9,10.8,11.7,10z M11.7,12c-0.1-0.3-0.3-0.5-0.5-0.5c0.3-0.1,0.5-0.3,0.6-0.6c0.1,0.3,0.3,0.5,0.6,0.6
		C12,11.6,11.8,11.8,11.7,12z"/>
	<path class="st0" d="M10.7,5.5C10.7,4.1,9.6,3,8.2,3C6.8,3,5.7,4.1,5.7,5.5C5.7,6.9,6.8,8,8.2,8C9.6,8,10.7,6.9,10.7,5.5z M8.2,7.5
		c-1.1,0-2-0.9-2-2c0-1.1,0.9-2,2-2c1.1,0,2,0.9,2,2C10.2,6.6,9.3,7.5,8.2,7.5z"/>
	<path class="st0" d="M9.6,5.1C9.6,5.1,9.6,5.1,9.6,5.1c-0.7,0.6-1.3,1.2-2,1.8C7.8,7,8,7,8.2,7c0,0,0.1,0,0.1,0
		c0.4-0.4,0.9-0.8,1.3-1.2c0,0,0.1-0.1,0.1-0.1C9.7,5.4,9.6,5.3,9.6,5.1z"/>
	<path class="st0" d="M9.2,4.5C8.5,5.1,7.8,5.8,7.1,6.4c0.1,0.1,0.2,0.2,0.2,0.3C8,6,8.7,5.4,9.4,4.8C9.4,4.7,9.3,4.6,9.2,4.5z"/>
</g>
</svg>
