<?xml version="1.0" encoding="utf-8"?>
<!-- Generator: Adobe Illustrator 22.1.0, SVG Export Plug-In . SVG Version: 6.00 Build 0)  -->
<svg version="1.1" id="Layer_3" xmlns="http://www.w3.org/2000/svg" xmlns:xlink="http://www.w3.org/1999/xlink" x="0px" y="0px"
	 viewBox="0 0 16 16" style="enable-background:new 0 0 16 16;" xml:space="preserve">
<g>
	<path d="M10.9,15.2H5.1c-0.7,0-1.5-0.5-1.9-1.1L0.3,9.1c-0.4-0.6-0.4-1.6,0-2.2l2.9-5.1c0.4-0.6,1.2-1.1,1.9-1.1h5.9
		c0.7,0,1.5,0.5,1.9,1.1l2.9,5.1c0.4,0.6,0.4,1.6,0,2.2l-2.9,5.1C12.5,14.8,11.6,15.2,10.9,15.2z M5.1,1.7C4.7,1.7,4.2,2,4,2.3
		L1.1,7.4c-0.2,0.3-0.2,0.9,0,1.2L4,13.7c0.2,0.3,0.7,0.6,1.1,0.6h5.9c0.4,0,0.9-0.3,1.1-0.6l2.9-5.1c0.2-0.3,0.2-0.9,0-1.2L12,2.3
		c-0.2-0.3-0.7-0.6-1.1-0.6H5.1z"/>
	<path d="M11.3,8.2c0,0.8,0,1.6,0,2.4c0,1.3-0.8,2.1-2.1,2.1c-0.8,0-1.6,0-2.4,0c-0.8,0-1.4-0.3-1.8-1C4.5,10.9,4,10,3.5,9.2
		C3.2,8.8,3.3,8.5,3.6,8.3c0.3-0.2,0.6-0.1,0.9,0.3c0.4,0.6,0.7,1.2,1.1,1.7c0.1,0.1,0.2,0.1,0.2,0.2c0-0.1,0.1-0.2,0.1-0.3
		c0-1.7,0-3.4,0-5.1c0-0.2,0.1-0.5,0.2-0.6c0.1-0.1,0.4-0.2,0.6-0.1C6.8,4.5,7,4.8,7,5c0,0.9,0,1.9,0,2.8c0,0.2,0.1,0.3,0.1,0.5
		c0-0.2,0.1-0.3,0.1-0.5c0-1.3,0-2.6,0-3.8c0-0.5,0.3-0.7,0.7-0.6C8.4,3.4,8.5,3.7,8.5,4c0,1.2,0,2.5,0,3.7c0,0.1,0,0.2,0,0.3
		c0,0.1,0.1,0.2,0.1,0.3c0-0.1,0.1-0.2,0.1-0.3c0-1,0-1.9,0-2.9c0-0.5,0.2-0.7,0.6-0.7c0.4,0,0.6,0.3,0.6,0.7c0,1,0,1.9,0,2.9
		c0,0.1,0.1,0.2,0.2,0.3c0-0.1,0.1-0.2,0.1-0.3c0-0.8,0-1.5,0-2.3c0-0.5,0.2-0.7,0.6-0.7c0.4,0,0.6,0.3,0.6,0.7
		C11.3,6.5,11.3,7.3,11.3,8.2z"/>
</g>
</svg>
