<?xml version="1.0" encoding="utf-8"?>
<!-- Generator: Adobe Illustrator 22.1.0, SVG Export Plug-In . SVG Version: 6.00 Build 0)  -->
<svg version="1.1" id="Layer_1" xmlns="http://www.w3.org/2000/svg" xmlns:xlink="http://www.w3.org/1999/xlink" x="0px" y="0px"
	 viewBox="0 0 16 16" style="enable-background:new 0 0 16 16;" xml:space="preserve">
<style type="text/css">
	.st0{fill:#FFFFFF;}
	.st1{fill:#C0C0C0;}
</style>
<circle cx="8" cy="8" r="8"/>
<g id="dancer">
	<g>
		<g>
			<path class="st0" d="M5.9,1.5C6,1.7,6.1,1.8,6.2,2c0.2,1.1,0.4,2.2,0.5,3.3c0,0.1,0,0.2,0.1,0.3c0.4,0,0.8,0,1.2,0
				c0.2,0,0.4,0,0.6,0.1c0.5,0.2,1,0.4,1.6,0.7c0.2,0.1,0.3,0.3,0.3,0.5c-0.1,0.5-0.1,1.1-0.2,1.6c0,0.3-0.1,0.4-0.4,0.4
				c-0.3,0-0.4-0.2-0.3-0.5c0-0.4,0-0.7,0.1-1.1c0.1-0.3,0-0.5-0.3-0.6C9,6.7,8.7,6.5,8.3,6.4C8.3,7,8.3,7.5,8.5,8
				c0,0.1,0.1,0.1,0.1,0.1c0.8,0.5,1.3,1.4,1.9,2.2c-0.2,0.1-0.3,0.2-0.5,0.4c0.6,1,1.1,2,1.7,2.9c0,0.1,0,0.2,0,0.3
				c-0.4,0.5-0.8,0.5-1.1-0.1c-0.5-0.8-1-1.7-1.4-2.5c-0.2-0.3-0.3-0.3-0.6-0.3c-0.7,0.2-1.5,0.2-2.3,0c-0.3-0.1-0.3,0-0.3,0.3
				C6,12.2,6,13,6,13.7c0,0.4-0.1,0.6-0.4,0.8c-0.1,0-0.2,0-0.3,0c-0.3-0.2-0.4-0.4-0.4-0.7c0-0.8-0.1-1.7-0.1-2.5
				c0-0.2,0-0.5,0.1-0.8c0,0-0.1-0.1-0.2-0.2C5.4,9.9,6,9.4,6.5,9.1c-0.1-0.7-0.3-1.3-0.4-2c-0.1-0.4,0-0.7,0-1.1
				C5.9,4.7,5.7,3.4,5.5,2.1c0-0.3,0-0.5,0.2-0.6C5.7,1.5,5.8,1.5,5.9,1.5z"/>
			<path class="st0" d="M7.8,3.6c0.5,0,0.9,0.4,0.9,0.9c0,0.5-0.4,0.9-0.9,0.9c-0.5,0-0.9-0.4-0.9-1C6.9,3.9,7.3,3.6,7.8,3.6z"/>
		</g>
	</g>
</g>
<g id="lead">
	<g>
		<path class="st1" d="M5.7,7.3C5.7,7.3,5.7,7.3,5.7,7.3c0,0.1-0.1,0.2-0.1,0.2C5.3,7.7,5.1,8,4.8,8.2c0,0,0,0,0,0.1
			C4.8,8.7,4.9,9,5,9.4c0,0.1,0,0.2-0.1,0.2c0,0,0,0-0.1,0c0,0,0,0-0.1,0C4.4,9.4,4,9.2,3.7,9.1c0,0-0.1,0-0.1,0
			C3.3,9.3,2.9,9.4,2.6,9.6c0,0,0,0-0.1,0C2.4,9.6,2.4,9.5,2.4,9.4c0.1-0.4,0.1-0.8,0.2-1.1c0,0,0,0,0-0.1C2.3,8,2,7.7,1.8,7.5
			c0,0-0.1-0.1-0.1-0.1c0,0,0,0,0-0.1c0-0.1,0.1-0.1,0.2-0.1c0,0,0,0,0,0C2.2,7.1,2.6,7.1,3,7C3,7,3,7,3,7c0.2-0.3,0.3-0.7,0.5-1
			c0-0.1,0.1-0.1,0.1-0.1c0,0,0,0,0.1,0c0.1,0,0.1,0.1,0.1,0.1C4,6.3,4.2,6.6,4.3,7c0,0,0,0,0.1,0c0,0,0.1,0,0.1,0
			c0.3,0,0.6,0.1,1,0.1C5.6,7.2,5.6,7.2,5.7,7.3z"/>
	</g>
</g>
</svg>
