<?xml version="1.0" encoding="utf-8"?>
<!-- Generator: Adobe Illustrator 22.1.0, SVG Export Plug-In . SVG Version: 6.00 Build 0)  -->
<svg version="1.1" id="Layer_1" xmlns="http://www.w3.org/2000/svg" xmlns:xlink="http://www.w3.org/1999/xlink" x="0px" y="0px"
	 viewBox="0 0 16 16" style="enable-background:new 0 0 16 16;" xml:space="preserve">
<style type="text/css">
	.st0{fill:#FFFFFF;}
</style>
<circle cx="8" cy="8" r="8"/>
<g id="leader">
	<path class="st0" d="M13.4,5.8c-0.2-0.4-0.7-0.6-1.1-0.4c-0.4,0.2-0.6,0.7-0.3,1.1c0,0.1,0.1,0.1,0.1,0.2c-0.7,0.6-1.4,1.1-2.1,1.7
		C9.5,7.5,8.9,6.6,8.4,5.7c0.1-0.1,0.2-0.2,0.2-0.3C8.9,5,8.8,4.5,8.2,4.1c-0.1,0-0.2,0-0.4,0C7.1,4.5,7,5.1,7.6,5.7
		C7.1,6.6,6.5,7.5,6,8.4c-0.7-0.6-1.4-1.2-2-1.7C4,6.5,4.1,6.3,4.1,6.2c0-0.3-0.2-0.7-0.5-0.8c-0.3-0.1-0.7,0-0.9,0.3
		C2.6,5.8,2.5,5.8,2.5,5.9c0,0.1,0,0.3,0,0.4C2.7,6.7,2.9,7,3.4,6.9c0.1,0.7,0.2,1.3,0.2,2c0.1,0.7,0.2,1.4,0.3,2.1
		c0,0.1,0.2,0.2,0.3,0.3c0.7,0.2,1.4,0.4,2.1,0.4c1.7,0.2,3.3,0.1,4.9-0.3c0.8-0.2,0.8-0.2,0.9-1c0.1-1.1,0.3-2.2,0.4-3.3
		c0-0.2,0.1-0.3,0.3-0.3c0.4,0,0.5-0.3,0.7-0.6c0-0.1,0-0.2,0-0.3C13.5,5.9,13.4,5.9,13.4,5.8z"/>
</g>
</svg>
