<?xml version="1.0" encoding="utf-8"?>
<!-- Generator: Adobe Illustrator 22.1.0, SVG Export Plug-In . SVG Version: 6.00 Build 0)  -->
<svg version="1.1" id="Layer_1" xmlns="http://www.w3.org/2000/svg" xmlns:xlink="http://www.w3.org/1999/xlink" x="0px" y="0px"
	 viewBox="0 0 16 16" style="enable-background:new 0 0 16 16;" xml:space="preserve">
<style type="text/css">
	.st0{fill:#FFFFFF;}
</style>
<circle cx="8" cy="8" r="8"/>
<g id="center">
	<path class="st0" d="M12.2,7.6c-0.4-2.2-1.6-3.5-3.9-3.9c0-0.3,0.1-0.6-0.2-0.8C8.1,3,7.9,3,7.8,3C7.6,3.2,7.6,3.5,7.6,3.8
		C5.4,4.1,4.1,5.4,3.8,7.6C3.5,7.6,3.2,7.5,3,7.8c0,0.1,0,0.2,0,0.3c0.2,0.3,0.5,0.2,0.8,0.2c0.4,2.2,1.6,3.5,3.9,3.9
		c0,0.3-0.1,0.6,0.2,0.8c0.1,0,0.2,0,0.3,0c0.3-0.2,0.2-0.5,0.2-0.8c1-0.1,1.9-0.5,2.6-1.2c0.7-0.7,1.1-1.6,1.2-2.6
		c0.3,0,0.6,0.1,0.8-0.2c0-0.1,0-0.2,0-0.3C12.8,7.6,12.5,7.6,12.2,7.6z M8.4,11.4c-0.1-0.6-0.1-0.7-0.4-0.7c-0.5,0-0.4,0.4-0.4,0.7
		c-1.5-0.1-2.9-1.5-3-3c0.1,0,0.2,0,0.3,0c0.2,0,0.4-0.2,0.4-0.4c0-0.2-0.2-0.4-0.4-0.4c-0.1,0-0.2,0-0.3,0c-0.2-1.2,1.7-3.1,3-3
		c0,0.3-0.1,0.7,0.4,0.7c0.3,0,0.3-0.1,0.4-0.7c1.2-0.2,3.1,1.8,3,3c-0.3,0-0.7-0.1-0.7,0.4c0,0.2,0.1,0.3,0.2,0.4
		c0.1,0,0.3,0,0.5,0.1C11.3,9.8,10,11.3,8.4,11.4z"/>
	<path class="st0" d="M8,6.5C7.1,6.5,6.5,7.1,6.5,8c0,0.9,0.7,1.6,1.5,1.6c0.9,0,1.6-0.7,1.6-1.5C9.5,7.1,8.9,6.5,8,6.5z"/>
</g>
</svg>
