<?xml version="1.0" encoding="utf-8"?>
<!-- Generator: Adobe Illustrator 22.1.0, SVG Export Plug-In . SVG Version: 6.00 Build 0)  -->
<svg version="1.1" id="Layer_1" xmlns="http://www.w3.org/2000/svg" xmlns:xlink="http://www.w3.org/1999/xlink" x="0px" y="0px"
	 viewBox="0 0 16 16" style="enable-background:new 0 0 16 16;" xml:space="preserve">
<style type="text/css">
	.st0{fill:#707070;}
	.st1{fill:#D14949;}
</style>
<path class="st0" d="M13,2c0.6,0,1,0.4,1,1v10c0,0.6-0.4,1-1,1H3c-0.6,0-1-0.4-1-1V3c0-0.6,0.4-1,1-1H13 M13,0H3C1.3,0,0,1.3,0,3v10
	c0,1.7,1.3,3,3,3h10c1.7,0,3-1.3,3-3V3C16,1.3,14.7,0,13,0L13,0z"/>
<path class="st1" d="M5.8,7.8C6,8,6,8.3,5.8,8.5L4.5,9.8c-0.2,0.2-0.2,0.5,0,0.7l1.2,1.2c0.2,0.2,0.5,0.2,0.7,0l1.3-1.3
	c0.2-0.2,0.5-0.2,0.7,0l1.3,1.3c0.2,0.2,0.5,0.2,0.7,0l1.2-1.2c0.2-0.2,0.2-0.5-0.1-0.8l-1.3-1.3c-0.2-0.2-0.2-0.5,0-0.7l1.3-1.3
	c0.2-0.2,0.2-0.5,0-0.7l-1.2-1.2c-0.2-0.2-0.5-0.2-0.7,0L8.3,5.8C8.1,6,7.8,6,7.5,5.8L6.2,4.5C6,4.3,5.7,4.3,5.5,4.5L4.3,5.7
	c-0.2,0.2-0.2,0.5,0,0.7L5.8,7.8z"/>
</svg>
