<?xml version="1.0" encoding="utf-8"?>
<!-- Generator: Adobe Illustrator 22.1.0, SVG Export Plug-In . SVG Version: 6.00 Build 0)  -->
<svg version="1.1" id="Layer_1" xmlns="http://www.w3.org/2000/svg" xmlns:xlink="http://www.w3.org/1999/xlink" x="0px" y="0px"
	 viewBox="0 0 16 16" style="enable-background:new 0 0 16 16;" xml:space="preserve">
<style type="text/css">
	.st0{fill:#FFFFFF;}
</style>
<circle cx="8" cy="8" r="8"/>
<path id="rapper" class="st0" d="M14.5,8.3c0-0.3,0-0.5,0-0.8l0-0.1c0-0.3,0-0.5-0.1-0.8c-0.3-1.5-1.1-2.6-2.6-3.1
	c-0.6-0.2-1.2-0.2-1.8-0.2C10,3.1,9.8,3,9.4,3C9.1,3,8.9,3.1,8.8,3.3c-0.1,0-0.2,0-0.3,0c-0.2,0-0.4,0-0.6,0C6.2,3.5,4.7,5,4.6,6.6
	c0,0.4-0.1,0.8-0.1,1.2l0,0.3c0,0.3,0,0.5,0,0.8V9l0,0C4.3,9,4.1,9.1,3.9,9.1C3.3,9.4,2.6,9.6,2,9.8c-0.2,0.1-0.4,0.2-0.4,0.4
	c-0.1,0.2,0,0.4,0.1,0.6C1.8,11,1.9,11,2,11.1c0.6,0.3,1.3,0.5,2.2,0.6c0.4,0.1,0.9,0.1,1.3,0.2c0.3,0,0.7,0.1,1,0.1
	c0.5,0.1,0.9,0.1,1.4,0.1c0.6,0,1.3-0.1,1.9-0.2c1.1-0.3,2.1-0.8,2.8-1.3c0.1-0.1,0.3-0.2,0.4-0.2c0.4-0.1,0.8-0.2,1.1-0.4
	c0.3-0.2,0.4-0.5,0.4-0.8C14.5,8.9,14.5,8.6,14.5,8.3z M12.9,6.8c0-0.9-0.2-1.6-0.7-2.2c0.8,0.5,1.3,1.4,1.4,2.4l0,1
	c0,0.4,0,0.8,0,1.2c-0.2,0.1-0.4,0.2-0.7,0.3l0-1.4C12.9,7.7,12.9,7.3,12.9,6.8z M4.7,9.9c0.3,0.2,0.5,0.3,0.7,0.4
	c0.6,0.2,1.2,0.3,1.8,0.4c1,0.1,1.9,0.2,2.8,0.1c0.1,0,0.1,0,0.2,0c-0.9,0.3-1.9,0.5-2.9,0.4c-0.5,0-1-0.1-1.5-0.2l-0.6-0.1
	c-0.9-0.1-1.6-0.3-2.3-0.5L4.7,9.9C4.7,9.9,4.7,9.9,4.7,9.9z M7,9.7c0-0.4,0-0.8,0-1.1V8.5h0l0-0.8C7,7.3,7,7,7,6.6
	c0.1-1,0.5-1.7,1.4-2.1C8.7,4.4,9,4.3,9.3,4.2c0.2,0,0.4,0,0.5,0c0.3,0.1,0.6,0.2,0.9,0.4C11.5,5,12,5.7,12,6.7c0,0.7,0,1.4,0,2
	c0,0.3,0,0.6,0,0.9C10.3,9.9,8.7,9.9,7,9.7z M6.8,4.7C6.3,5.3,6.1,6.1,6.1,6.9v2.7C5.8,9.5,5.6,9.4,5.4,9.3l0-0.6
	c0-0.6,0-1.2,0.1-1.8C5.5,5.9,6.1,5.1,6.8,4.7C6.8,4.7,6.8,4.7,6.8,4.7z"/>
</svg>
