<?xml version="1.0" encoding="utf-8"?>
<!-- Generator: Adobe Illustrator 22.1.0, SVG Export Plug-In . SVG Version: 6.00 Build 0)  -->
<svg version="1.1" id="Layer_1" xmlns="http://www.w3.org/2000/svg" xmlns:xlink="http://www.w3.org/1999/xlink" x="0px" y="0px"
	 viewBox="0 0 16 16" style="enable-background:new 0 0 16 16;" xml:space="preserve">
<style type="text/css">
	.st0{fill:#FFFFFF;}
</style>
<circle cx="8" cy="8" r="8"/>
<g id="all">
	<g>
		<path class="st0" d="M7.8,13.6c-0.1,0-0.2,0-0.3,0c-0.4,0-0.9-0.1-1.3-0.2c-0.1,0-0.2-0.1-0.3-0.1c-0.1,0-0.1-0.1-0.1-0.2
			c0-0.3,0-0.6,0-1c0-0.5,0.2-1,0.6-1.4c0.3-0.3,0.7-0.6,1.2-0.7c0.7-0.1,1.4,0,1.9,0.5c0.4,0.3,0.6,0.8,0.7,1.3c0,0.1,0,0.2,0,0.3
			c0,0.3,0,0.5,0,0.8c0,0.1-0.1,0.2-0.2,0.3c-0.2,0.1-0.3,0.2-0.5,0.2c-0.3,0.1-0.6,0.1-0.8,0.1c-0.2,0-0.3,0-0.5,0c0,0,0,0,0,0
			C8.1,13.6,7.9,13.6,7.8,13.6z"/>
		<path class="st0" d="M1.9,10.5c0-0.1,0-0.1,0-0.2C2,10,2.1,9.7,2.3,9.4C2.7,9,3.1,8.6,3.7,8.5c0.5-0.1,0.9,0,1.4,0.2
			c0.5,0.2,0.8,0.6,1,1.1c0,0.1,0.1,0.2,0.1,0.3c0,0,0,0,0,0.1c-0.2,0.2-0.4,0.4-0.5,0.6c-0.2,0.3-0.3,0.6-0.3,0.9
			c0,0.1,0,0.2,0,0.3c0,0,0,0,0,0c-0.5,0.1-1.1,0.1-1.6,0.1c-0.3,0-0.7-0.1-1-0.1c-0.2,0-0.4-0.1-0.5-0.2c-0.1,0-0.2-0.1-0.2-0.2
			C1.9,11.2,1.9,10.9,1.9,10.5z"/>
		<path class="st0" d="M14.1,11.5c0,0.1-0.1,0.2-0.2,0.2c-0.2,0.1-0.4,0.2-0.7,0.2c-0.2,0.1-0.5,0.1-0.8,0.1c-0.3,0-0.6,0-1,0
			c-0.3,0-0.6,0-0.8-0.1c0,0,0,0,0,0c0-0.3-0.1-0.6-0.2-0.9c-0.2-0.4-0.4-0.7-0.7-0.9c0,0,0,0,0-0.1c0.1-0.4,0.4-0.8,0.7-1.1
			c0.3-0.3,0.7-0.5,1.1-0.5c0.8-0.1,1.4,0.2,1.9,0.7c0.3,0.3,0.4,0.7,0.5,1.1c0,0.1,0,0.1,0,0.2C14.1,10.9,14.1,11.2,14.1,11.5z"/>
		<path class="st0" d="M10,2.4c0.1,0,0.2,0,0.2,0c0.3,0.1,0.6,0.3,0.7,0.6c0.1,0.2,0.2,0.4,0.1,0.7c0,0.3-0.2,0.6-0.4,0.8
			c-0.3,0.2-0.6,0.3-0.9,0.3C9.5,4.8,9.2,4.7,9,4.5C8.8,4.2,8.7,3.9,8.7,3.5c0-0.3,0.2-0.6,0.5-0.9c0.2-0.2,0.4-0.2,0.6-0.3
			c0,0,0,0,0,0C9.9,2.4,9.9,2.4,10,2.4z"/>
		<path class="st0" d="M6.1,2.4c0.1,0,0.2,0,0.2,0C6.7,2.5,6.9,2.7,7.1,3c0.2,0.2,0.2,0.5,0.2,0.8c0,0.3-0.2,0.5-0.4,0.8
			C6.7,4.7,6.5,4.8,6.3,4.8C6,4.9,5.8,4.8,5.5,4.7C5.2,4.5,5,4.3,4.9,4C4.8,3.6,4.8,3.3,5.1,3c0.2-0.3,0.5-0.5,0.8-0.5
			c0,0,0.1,0,0.1,0C6,2.4,6.1,2.4,6.1,2.4z"/>
		<path class="st0" d="M2.7,6.8c0-0.8,0.7-1.5,1.5-1.5c0.8,0,1.5,0.7,1.5,1.5c0,0.8-0.7,1.5-1.5,1.5C3.3,8.2,2.7,7.6,2.7,6.8z"/>
		<path class="st0" d="M10.4,6.8c0-0.8,0.7-1.5,1.5-1.5c0.8,0,1.5,0.7,1.5,1.5c0,0.8-0.7,1.5-1.5,1.5C11.1,8.2,10.4,7.6,10.4,6.8z"
			/>
		<path class="st0" d="M6.6,8.2c0-0.8,0.7-1.5,1.5-1.5c0.8,0,1.5,0.7,1.5,1.5C9.5,9,8.8,9.7,8,9.7C7.2,9.7,6.6,9,6.6,8.2z"/>
		<path class="st0" d="M10.7,8.3C10.2,8.5,10.1,8.7,9.8,9C10,8.4,10,7.8,9.7,7.3c-0.3-0.5-0.8-0.9-1.4-1c0.2-1,1.4-1.6,2.4-1
			c-0.5,0.4-0.7,0.9-0.7,1.5C9.9,7.4,10.2,7.9,10.7,8.3z"/>
		<path class="st0" d="M6.2,9C6,8.7,5.7,8.5,5.3,8.3c0.5-0.4,0.7-0.9,0.7-1.5c0-0.6-0.3-1.1-0.7-1.5c0.9-0.5,2.1,0,2.4,1.1
			c-0.6,0.1-1.1,0.4-1.4,1C6,7.9,6,8.5,6.2,9z"/>
	</g>
</g>
</svg>
