<?xml version="1.0" encoding="utf-8"?>
<!-- Generator: Adobe Illustrator 22.1.0, SVG Export Plug-In . SVG Version: 6.00 Build 0)  -->
<svg version="1.1" id="Layer_1" xmlns="http://www.w3.org/2000/svg" xmlns:xlink="http://www.w3.org/1999/xlink" x="0px" y="0px"
	 viewBox="0 0 105 105" style="enable-background:new 0 0 105 105;" xml:space="preserve">
<style type="text/css">
	.st0{fill:#EBEBF2;}
	.st1{fill:#B5B5BA;}
</style>
<rect class="st0" width="105" height="105"/>
<path class="st1" d="M81.2,42.5H62.6V22.9c0-3.6-2.9-6.5-6.5-6.5h-7.1c-3.6,0-6.5,2.9-6.5,6.5v19.7H23.8c-3.6,0-6.5,2.9-6.5,6.5v6.7
	c0,3.6,2.9,6.5,6.5,6.5h18.7v19.9c0,3.6,2.9,6.5,6.5,6.5h7.1c3.6,0,6.5-2.9,6.5-6.5V62.2h18.7c3.6,0,6.5-2.9,6.5-6.5V49
	C87.8,45.5,84.8,42.5,81.2,42.5z"/>
</svg>
