<?xml version="1.0" encoding="utf-8"?>
<!-- Generator: Adobe Illustrator 24.0.1, SVG Export Plug-In . SVG Version: 6.00 Build 0)  -->
<svg version="1.1" id="positions" xmlns="http://www.w3.org/2000/svg" xmlns:xlink="http://www.w3.org/1999/xlink" x="0px" y="0px"
	 viewBox="0 0 16 272" style="enable-background:new 0 0 16 272;" xml:space="preserve">
<style type="text/css">
	.st0{fill:#FFFFFF;}
	.st1{fill:#FFD700;}
	.st2{fill:#C0C0C0;}
	.st3{fill:#FFFFFF;stroke:#000000;stroke-linecap:round;stroke-miterlimit:10;}
</style>
<g id="leader_1_">
	<circle cx="8" cy="24" r="8"/>
	<g id="vocalist">
		<path class="st0" d="M9.4,26.7c0-0.4,0-0.8,0-1.2c0-0.3,0.1-0.5,0.4-0.6c0.1,0,0.2-0.1,0.3-0.1c-0.5-1-0.9-1.9-1.4-2.9
			c-0.4,0.2-0.9,0.5-1.3,0.7c-1.7,1-3.3,2-5,3C2.1,25.8,2,26,2.1,26.3c0.1,0.1,0.1,0.3,0.2,0.4c0.3,0.7,0.4,0.8,1.2,0.5
			c1.1-0.4,2.3-0.8,3.5-1.3c0,0.3,0,0.5,0,0.7c0,0.7,0,0.7,0.7,0.9c0,1.5,0,3,0,4.5c0.3,0,0.5,0,0.8,0c0.1,0,0.2,0,0.4,0
			c0-1.5,0-3,0-4.5C9.4,27.4,9.4,27.3,9.4,26.7z"/>
		<path class="st0" d="M12.4,20.1c-0.9-0.4-2-0.1-2.7,0.6c-0.1,0.1-0.2,0.3-0.1,0.5c0.5,1.1,1.1,2.2,1.6,3.3
			c0.1,0.2,0.2,0.3,0.4,0.2c1.3-0.1,2.3-1.1,2.3-2.4C13.9,21.3,13.3,20.4,12.4,20.1z"/>
	</g>
	<g id="main">
		<g>
			<g>
				<path class="st1" d="M11.1,19.3v0.1c-0.1,0-0.1,0.1-0.1,0.2c-0.5,0.4-0.9,0.8-1.3,1.1v0.1c0.1,0.6,0.2,1.2,0.3,1.8
					c0,0.2,0,0.2-0.2,0.3H9.7c0,0-0.1,0-0.1-0.1c-0.5-0.2-1-0.5-1.5-0.8C8,22,8,22,7.9,22c-0.5,0.3-1.1,0.6-1.6,0.9H6.2
					C6,22.8,6,22.8,6,22.6c0.1-0.6,0.2-1.2,0.3-1.7v-0.1C5.9,20.4,5.5,20,5,19.6c0-0.1,0-0.2-0.1-0.2v-0.1c0-0.1,0.1-0.2,0.3-0.2
					l0,0c0.6-0.1,1.1-0.2,1.7-0.3c0,0,0.1,0,0.1-0.1c0.3-0.5,0.5-1,0.8-1.6c0,0,0.1,0,0.2-0.1l0,0c0.1,0,0.1,0.1,0.2,0.2
					c0.3,0.5,0.5,1,0.8,1.6c0,0,0,0.1,0.1,0.1s0.1,0,0.2,0c0.5,0.1,1,0.1,1.5,0.2C10.9,19.1,11,19.2,11.1,19.3z"/>
			</g>
		</g>
	</g>
</g>
<g id="main-vocalist">
	<circle cx="8" cy="8" r="8"/>
	<g id="leader">
		<path class="st0" d="M13.4,5.8c-0.2-0.4-0.7-0.6-1.1-0.4c-0.4,0.2-0.6,0.7-0.3,1.1c0,0.1,0.1,0.1,0.1,0.2
			c-0.7,0.6-1.4,1.1-2.1,1.7C9.5,7.5,8.9,6.6,8.4,5.7c0.1-0.1,0.2-0.2,0.2-0.3C8.9,5,8.8,4.5,8.2,4.1c-0.1,0-0.2,0-0.4,0
			C7.1,4.5,7,5.1,7.6,5.7C7.1,6.6,6.5,7.5,6,8.4C5.3,7.8,4.6,7.2,4,6.7c0-0.2,0.1-0.4,0.1-0.5c0-0.3-0.2-0.7-0.5-0.8
			c-0.3-0.1-0.7,0-0.9,0.3C2.6,5.8,2.5,5.8,2.5,5.9s0,0.3,0,0.4C2.7,6.7,2.9,7,3.4,6.9c0.1,0.7,0.2,1.3,0.2,2
			c0.1,0.7,0.2,1.4,0.3,2.1c0,0.1,0.2,0.2,0.3,0.3c0.7,0.2,1.4,0.4,2.1,0.4c1.7,0.2,3.3,0.1,4.9-0.3c0.8-0.2,0.8-0.2,0.9-1
			c0.1-1.1,0.3-2.2,0.4-3.3c0-0.2,0.1-0.3,0.3-0.3c0.4,0,0.5-0.3,0.7-0.6c0-0.1,0-0.2,0-0.3C13.5,5.9,13.4,5.9,13.4,5.8z"/>
	</g>
</g>
<g id="lead-vocalist">
	<circle cx="8" cy="40" r="8"/>
	<g id="vocalist_1_">
		<path class="st0" d="M9.4,42.7c0-0.4,0-0.8,0-1.2c0-0.3,0.1-0.5,0.4-0.6c0.1,0,0.2-0.1,0.3-0.1c-0.5-1-0.9-1.9-1.4-2.9
			c-0.4,0.2-0.9,0.5-1.3,0.7c-1.7,1-3.3,2-5,3C2.1,41.8,2,42,2.1,42.3c0.1,0.1,0.1,0.3,0.2,0.4c0.3,0.7,0.4,0.8,1.2,0.5
			c1.1-0.4,2.3-0.8,3.5-1.3c0,0.3,0,0.5,0,0.7c0,0.7,0,0.7,0.7,0.9c0,1.5,0,3,0,4.5c0.3,0,0.5,0,0.8,0c0.1,0,0.2,0,0.4,0
			c0-1.5,0-3,0-4.5C9.4,43.4,9.4,43.3,9.4,42.7z"/>
		<path class="st0" d="M12.4,36.1c-0.9-0.4-2-0.1-2.7,0.6c-0.1,0.1-0.2,0.3-0.1,0.5c0.5,1.1,1.1,2.2,1.6,3.3
			c0.1,0.2,0.2,0.3,0.4,0.2c1.3-0.1,2.3-1.1,2.3-2.4C13.9,37.3,13.3,36.4,12.4,36.1z"/>
	</g>
	<g id="lead">
		<g>
			<path class="st2" d="M13.7,43.1L13.7,43.1c0,0.1-0.1,0.2-0.1,0.2c-0.3,0.3-0.5,0.5-0.8,0.8c0,0,0,0,0,0.1
				c0.1,0.4,0.1,0.7,0.2,1.1c0,0.1,0,0.2-0.1,0.2c0,0,0,0-0.1,0c0,0,0,0-0.1,0c-0.3-0.2-0.7-0.3-1-0.5h-0.1
				c-0.4,0.2-0.7,0.4-1.1,0.6c0,0,0,0-0.1,0c-0.1-0.1-0.1-0.1-0.1-0.2c0.1-0.4,0.1-0.8,0.2-1.1c0,0,0,0,0-0.1
				c-0.3-0.3-0.5-0.5-0.8-0.8l-0.1-0.1c0,0,0,0,0-0.1C9.8,43,9.8,43,9.9,43l0,0c0.4-0.1,0.7-0.1,1.1-0.2c0,0,0,0,0.1,0
				c0.2-0.3,0.3-0.7,0.5-1c0-0.1,0.1-0.1,0.1-0.1s0,0,0.1,0s0.1,0.1,0.1,0.1c0.2,0.3,0.3,0.7,0.5,1c0,0,0,0,0.1,0h0.1
				c0.3,0,0.6,0.1,1,0.1C13.6,43,13.7,43,13.7,43.1z"/>
		</g>
	</g>
</g>
<g id="vocalist_2_">
	<circle cx="8" cy="56" r="8"/>
	<path class="st0" d="M9.4,58.7c0-0.4,0-0.8,0-1.2c0-0.3,0.1-0.5,0.4-0.6c0.1,0,0.2-0.1,0.3-0.1c-0.5-1-0.9-1.9-1.4-2.9
		c-0.4,0.2-0.9,0.5-1.3,0.7c-1.7,1-3.3,2-5,3C2.1,57.8,2,58,2.1,58.3c0.1,0.1,0.1,0.3,0.2,0.4c0.3,0.7,0.4,0.8,1.2,0.5
		c1.1-0.4,2.3-0.8,3.5-1.3c0,0.3,0,0.5,0,0.7c0,0.7,0,0.7,0.7,0.9c0,1.5,0,3,0,4.5c0.3,0,0.5,0,0.8,0c0.1,0,0.2,0,0.4,0
		c0-1.5,0-3,0-4.5C9.4,59.4,9.4,59.3,9.4,58.7z"/>
	<path class="st0" d="M12.4,52.1c-0.9-0.4-2-0.1-2.7,0.6c-0.1,0.1-0.2,0.3-0.1,0.5c0.5,1.1,1.1,2.2,1.6,3.3c0.1,0.2,0.2,0.3,0.4,0.2
		c1.3-0.1,2.3-1.1,2.3-2.4C13.9,53.3,13.3,52.4,12.4,52.1z"/>
</g>
<g id="main-rapper">
	<circle cx="8" cy="72" r="8"/>
	<path id="rapper" class="st0" d="M14.5,72.3c0-0.3,0-0.5,0-0.8v-0.1c0-0.3,0-0.5-0.1-0.8c-0.3-1.5-1.1-2.6-2.6-3.1
		c-0.6-0.2-1.2-0.2-1.8-0.2c0-0.2-0.2-0.3-0.6-0.3c-0.3,0-0.5,0.1-0.6,0.3c-0.1,0-0.2,0-0.3,0c-0.2,0-0.4,0-0.6,0
		c-1.7,0.2-3.2,1.7-3.3,3.3c0,0.4-0.1,0.8-0.1,1.2v0.3c0,0.3,0,0.5,0,0.8V73l0,0c-0.2,0-0.4,0.1-0.6,0.1c-0.6,0.3-1.3,0.5-1.9,0.7
		c-0.2,0.1-0.4,0.2-0.4,0.4c-0.1,0.2,0,0.4,0.1,0.6C1.8,75,1.9,75,2,75.1c0.6,0.3,1.3,0.5,2.2,0.6c0.4,0.1,0.9,0.1,1.3,0.2
		c0.3,0,0.7,0.1,1,0.1c0.5,0.1,0.9,0.1,1.4,0.1c0.6,0,1.3-0.1,1.9-0.2c1.1-0.3,2.1-0.8,2.8-1.3c0.1-0.1,0.3-0.2,0.4-0.2
		c0.4-0.1,0.8-0.2,1.1-0.4c0.3-0.2,0.4-0.5,0.4-0.8C14.5,72.9,14.5,72.6,14.5,72.3z M12.9,70.8c0-0.9-0.2-1.6-0.7-2.2
		c0.8,0.5,1.3,1.4,1.4,2.4v1c0,0.4,0,0.8,0,1.2c-0.2,0.1-0.4,0.2-0.7,0.3v-1.4C12.9,71.7,12.9,71.3,12.9,70.8z M4.7,73.9
		c0.3,0.2,0.5,0.3,0.7,0.4c0.6,0.2,1.2,0.3,1.8,0.4c1,0.1,1.9,0.2,2.8,0.1c0.1,0,0.1,0,0.2,0c-0.9,0.3-1.9,0.5-2.9,0.4
		c-0.5,0-1-0.1-1.5-0.2l-0.6-0.1c-0.9-0.1-1.6-0.3-2.3-0.5L4.7,73.9L4.7,73.9z M7,73.7c0-0.4,0-0.8,0-1.1v-0.1l0,0v-0.8
		c0-0.4,0-0.7,0-1.1c0.1-1,0.5-1.7,1.4-2.1c0.3-0.1,0.6-0.2,0.9-0.3c0.2,0,0.4,0,0.5,0c0.3,0.1,0.6,0.2,0.9,0.4
		c0.8,0.4,1.3,1.1,1.3,2.1c0,0.7,0,1.4,0,2c0,0.3,0,0.6,0,0.9C10.3,73.9,8.7,73.9,7,73.7z M6.8,68.7c-0.5,0.6-0.7,1.4-0.7,2.2v2.7
		c-0.3-0.1-0.5-0.2-0.7-0.3v-0.6c0-0.6,0-1.2,0.1-1.8C5.5,69.9,6.1,69.1,6.8,68.7L6.8,68.7z"/>
	<g id="main_1_">
		<g>
			<g>
				<path class="st1" d="M11.1,67.3v0.1c-0.1,0-0.1,0.1-0.1,0.2c-0.5,0.4-0.9,0.8-1.3,1.1v0.1c0.1,0.6,0.2,1.2,0.3,1.8
					c0,0.2,0,0.2-0.2,0.3H9.7c0,0-0.1,0-0.1-0.1c-0.5-0.2-1-0.5-1.5-0.8C8,70,8,70,7.9,70c-0.5,0.3-1.1,0.6-1.6,0.9H6.2
					C6,70.8,6,70.8,6,70.6c0.1-0.6,0.2-1.2,0.3-1.7v-0.1C5.9,68.4,5.5,68,5,67.6c0-0.1,0-0.2-0.1-0.2v-0.1c0-0.1,0.1-0.2,0.3-0.2
					l0,0c0.6-0.1,1.1-0.2,1.7-0.3c0,0,0.1,0,0.1-0.1c0.3-0.5,0.5-1,0.8-1.6c0,0,0.1,0,0.2-0.1l0,0c0.1,0,0.1,0.1,0.2,0.2
					c0.3,0.5,0.5,1,0.8,1.6c0,0,0,0.1,0.1,0.1s0.1,0,0.2,0c0.5,0.1,1,0.1,1.5,0.2C10.9,67.1,11,67.2,11.1,67.3z"/>
			</g>
		</g>
	</g>
</g>
<g id="lead-rapper">
	<circle cx="8" cy="88" r="8"/>
	<path id="rapper_1_" class="st0" d="M14.5,88.3c0-0.3,0-0.5,0-0.8v-0.1c0-0.3,0-0.5-0.1-0.8c-0.3-1.5-1.1-2.6-2.6-3.1
		c-0.6-0.2-1.2-0.2-1.8-0.2c0-0.2-0.2-0.3-0.6-0.3c-0.3,0-0.5,0.1-0.6,0.3c-0.1,0-0.2,0-0.3,0c-0.2,0-0.4,0-0.6,0
		c-1.7,0.2-3.2,1.7-3.3,3.3c0,0.4-0.1,0.8-0.1,1.2v0.3c0,0.3,0,0.5,0,0.8V89l0,0c-0.2,0-0.4,0.1-0.6,0.1c-0.6,0.3-1.3,0.5-1.9,0.7
		c-0.2,0.1-0.4,0.2-0.4,0.4c-0.1,0.2,0,0.4,0.1,0.6C1.8,91,1.9,91,2,91.1c0.6,0.3,1.3,0.5,2.2,0.6c0.4,0.1,0.9,0.1,1.3,0.2
		c0.3,0,0.7,0.1,1,0.1c0.5,0.1,0.9,0.1,1.4,0.1c0.6,0,1.3-0.1,1.9-0.2c1.1-0.3,2.1-0.8,2.8-1.3c0.1-0.1,0.3-0.2,0.4-0.2
		c0.4-0.1,0.8-0.2,1.1-0.4c0.3-0.2,0.4-0.5,0.4-0.8C14.5,88.9,14.5,88.6,14.5,88.3z M12.9,86.8c0-0.9-0.2-1.6-0.7-2.2
		c0.8,0.5,1.3,1.4,1.4,2.4v1c0,0.4,0,0.8,0,1.2c-0.2,0.1-0.4,0.2-0.7,0.3v-1.4C12.9,87.7,12.9,87.3,12.9,86.8z M4.7,89.9
		c0.3,0.2,0.5,0.3,0.7,0.4c0.6,0.2,1.2,0.3,1.8,0.4c1,0.1,1.9,0.2,2.8,0.1c0.1,0,0.1,0,0.2,0c-0.9,0.3-1.9,0.5-2.9,0.4
		c-0.5,0-1-0.1-1.5-0.2l-0.6-0.1c-0.9-0.1-1.6-0.3-2.3-0.5L4.7,89.9L4.7,89.9z M7,89.7c0-0.4,0-0.8,0-1.1v-0.1l0,0v-0.8
		c0-0.4,0-0.7,0-1.1c0.1-1,0.5-1.7,1.4-2.1c0.3-0.1,0.6-0.2,0.9-0.3c0.2,0,0.4,0,0.5,0c0.3,0.1,0.6,0.2,0.9,0.4
		c0.8,0.4,1.3,1.1,1.3,2.1c0,0.7,0,1.4,0,2c0,0.3,0,0.6,0,0.9C10.3,89.9,8.7,89.9,7,89.7z M6.8,84.7c-0.5,0.6-0.7,1.4-0.7,2.2v2.7
		c-0.3-0.1-0.5-0.2-0.7-0.3v-0.6c0-0.6,0-1.2,0.1-1.8C5.5,85.9,6.1,85.1,6.8,84.7L6.8,84.7z"/>
	<g id="lead_1_">
		<g>
			<path class="st2" d="M5.7,87.3L5.7,87.3c0,0.1-0.1,0.2-0.1,0.2c-0.3,0.2-0.5,0.5-0.8,0.7c0,0,0,0,0,0.1c0,0.4,0.1,0.7,0.2,1.1
				c0,0.1,0,0.2-0.1,0.2c0,0,0,0-0.1,0c0,0,0,0-0.1,0c-0.3-0.2-0.7-0.4-1-0.5H3.6c-0.3,0.2-0.7,0.3-1,0.5c0,0,0,0-0.1,0
				s-0.1-0.1-0.1-0.2c0.1-0.4,0.1-0.8,0.2-1.1c0,0,0,0,0-0.1C2.3,88,2,87.7,1.8,87.5l-0.1-0.1c0,0,0,0,0-0.1c0-0.1,0.1-0.1,0.2-0.1
				l0,0C2.2,87.1,2.6,87.1,3,87l0,0c0.2-0.3,0.3-0.7,0.5-1c0-0.1,0.1-0.1,0.1-0.1s0,0,0.1,0S3.8,86,3.8,86c0.2,0.3,0.4,0.6,0.5,1
				c0,0,0,0,0.1,0h0.1c0.3,0,0.6,0.1,1,0.1C5.6,87.2,5.6,87.2,5.7,87.3z"/>
		</g>
	</g>
</g>
<g id="rapper_3_">
	<circle cx="8" cy="104" r="8"/>
	<path id="rapper_2_" class="st0" d="M14.5,104.3c0-0.3,0-0.5,0-0.8v-0.1c0-0.3,0-0.5-0.1-0.8c-0.3-1.5-1.1-2.6-2.6-3.1
		c-0.6-0.2-1.2-0.2-1.8-0.2c0-0.2-0.2-0.3-0.6-0.3c-0.3,0-0.5,0.1-0.6,0.3c-0.1,0-0.2,0-0.3,0c-0.2,0-0.4,0-0.6,0
		c-1.7,0.2-3.2,1.7-3.3,3.3c0,0.4-0.1,0.8-0.1,1.2v0.3c0,0.3,0,0.5,0,0.8v0.1l0,0c-0.2,0-0.4,0.1-0.6,0.1c-0.6,0.3-1.3,0.5-1.9,0.7
		c-0.2,0.1-0.4,0.2-0.4,0.4c-0.1,0.2,0,0.4,0.1,0.6c0.1,0.2,0.2,0.2,0.3,0.3c0.6,0.3,1.3,0.5,2.2,0.6c0.4,0.1,0.9,0.1,1.3,0.2
		c0.3,0,0.7,0.1,1,0.1c0.5,0.1,0.9,0.1,1.4,0.1c0.6,0,1.3-0.1,1.9-0.2c1.1-0.3,2.1-0.8,2.8-1.3c0.1-0.1,0.3-0.2,0.4-0.2
		c0.4-0.1,0.8-0.2,1.1-0.4c0.3-0.2,0.4-0.5,0.4-0.8C14.5,104.9,14.5,104.6,14.5,104.3z M12.9,102.8c0-0.9-0.2-1.6-0.7-2.2
		c0.8,0.5,1.3,1.4,1.4,2.4v1c0,0.4,0,0.8,0,1.2c-0.2,0.1-0.4,0.2-0.7,0.3v-1.4C12.9,103.7,12.9,103.3,12.9,102.8z M4.7,105.9
		c0.3,0.2,0.5,0.3,0.7,0.4c0.6,0.2,1.2,0.3,1.8,0.4c1,0.1,1.9,0.2,2.8,0.1c0.1,0,0.1,0,0.2,0c-0.9,0.3-1.9,0.5-2.9,0.4
		c-0.5,0-1-0.1-1.5-0.2l-0.6-0.1c-0.9-0.1-1.6-0.3-2.3-0.5L4.7,105.9L4.7,105.9z M7,105.7c0-0.4,0-0.8,0-1.1v-0.1l0,0v-0.8
		c0-0.4,0-0.7,0-1.1c0.1-1,0.5-1.7,1.4-2.1c0.3-0.1,0.6-0.2,0.9-0.3c0.2,0,0.4,0,0.5,0c0.3,0.1,0.6,0.2,0.9,0.4
		c0.8,0.4,1.3,1.1,1.3,2.1c0,0.7,0,1.4,0,2c0,0.3,0,0.6,0,0.9C10.3,105.9,8.7,105.9,7,105.7z M6.8,100.7c-0.5,0.6-0.7,1.4-0.7,2.2
		v2.7c-0.3-0.1-0.5-0.2-0.7-0.3v-0.6c0-0.6,0-1.2,0.1-1.8C5.5,101.9,6.1,101.1,6.8,100.7L6.8,100.7z"/>
</g>
<g id="main-dancer">
	<circle cx="8" cy="120" r="8"/>
	<g id="dancer">
		<g>
			<g>
				<path class="st0" d="M5.9,113.5c0.1,0.2,0.2,0.3,0.3,0.5c0.2,1.1,0.4,2.2,0.5,3.3c0,0.1,0,0.2,0.1,0.3c0.4,0,0.8,0,1.2,0
					c0.2,0,0.4,0,0.6,0.1c0.5,0.2,1,0.4,1.6,0.7c0.2,0.1,0.3,0.3,0.3,0.5c-0.1,0.5-0.1,1.1-0.2,1.6c0,0.3-0.1,0.4-0.4,0.4
					c-0.3,0-0.4-0.2-0.3-0.5c0-0.4,0-0.7,0.1-1.1c0.1-0.3,0-0.5-0.3-0.6c-0.4,0-0.7-0.2-1.1-0.3c0,0.6,0,1.1,0.2,1.6
					c0,0.1,0.1,0.1,0.1,0.1c0.8,0.5,1.3,1.4,1.9,2.2c-0.2,0.1-0.3,0.2-0.5,0.4c0.6,1,1.1,2,1.7,2.9c0,0.1,0,0.2,0,0.3
					c-0.4,0.5-0.8,0.5-1.1-0.1c-0.5-0.8-1-1.7-1.4-2.5C9,123,8.9,123,8.6,123c-0.7,0.2-1.5,0.2-2.3,0C6,122.9,6,123,6,123.3
					c0,0.9,0,1.7,0,2.4c0,0.4-0.1,0.6-0.4,0.8c-0.1,0-0.2,0-0.3,0c-0.3-0.2-0.4-0.4-0.4-0.7c0-0.8-0.1-1.7-0.1-2.5
					c0-0.2,0-0.5,0.1-0.8c0,0-0.1-0.1-0.2-0.2c0.7-0.4,1.3-0.9,1.8-1.2c-0.1-0.7-0.3-1.3-0.4-2c-0.1-0.4,0-0.7,0-1.1
					c-0.2-1.3-0.4-2.6-0.6-3.9c0-0.3,0-0.5,0.2-0.6C5.7,113.5,5.8,113.5,5.9,113.5z"/>
				<path class="st0" d="M7.8,115.6c0.5,0,0.9,0.4,0.9,0.9s-0.4,0.9-0.9,0.9s-0.9-0.4-0.9-1C6.9,115.9,7.3,115.6,7.8,115.6z"/>
			</g>
		</g>
	</g>
	<g id="main_2_">
		<g>
			<g>
				<path class="st1" d="M15.3,119.2v0.1c0,0.1-0.1,0.1-0.1,0.2c-0.4,0.4-0.8,0.8-1.2,1.2v0.1c0.1,0.6,0.2,1.1,0.3,1.7
					c0,0.2,0,0.2-0.2,0.3H14c0,0-0.1,0-0.1-0.1c-0.5-0.3-1-0.5-1.5-0.8h-0.1c-0.5,0.3-1.1,0.6-1.6,0.9h-0.1
					c-0.2-0.1-0.2-0.2-0.2-0.3c0.1-0.6,0.2-1.2,0.3-1.7v-0.1c-0.4-0.4-0.8-0.8-1.2-1.2c-0.3-0.1-0.3-0.1-0.4-0.2v-0.1
					c0.1-0.1,0.2-0.2,0.3-0.2l0,0c0.6-0.1,1.1-0.2,1.7-0.2c0,0,0.1,0,0.1-0.1c0.3-0.5,0.5-1,0.8-1.6c0,0,0.1-0.1,0.2-0.1h0.1
					c0.1,0,0.1,0.1,0.2,0.2c0.3,0.5,0.5,1,0.8,1.6c0,0,0,0.1,0.1,0.1s0.1,0,0.2,0c0.4,0,0.9,0.1,1.4,0.1
					C15.1,119,15.2,119.1,15.3,119.2z"/>
			</g>
		</g>
	</g>
</g>
<g id="lead-dancer">
	<circle cx="8" cy="136" r="8"/>
	<g id="dancer_1_">
		<g>
			<g>
				<path class="st0" d="M5.9,129.5c0.1,0.2,0.2,0.3,0.3,0.5c0.2,1.1,0.4,2.2,0.5,3.3c0,0.1,0,0.2,0.1,0.3c0.4,0,0.8,0,1.2,0
					c0.2,0,0.4,0,0.6,0.1c0.5,0.2,1,0.4,1.6,0.7c0.2,0.1,0.3,0.3,0.3,0.5c-0.1,0.5-0.1,1.1-0.2,1.6c0,0.3-0.1,0.4-0.4,0.4
					c-0.3,0-0.4-0.2-0.3-0.5c0-0.4,0-0.7,0.1-1.1c0.1-0.3,0-0.5-0.3-0.6c-0.4,0-0.7-0.2-1.1-0.3c0,0.6,0,1.1,0.2,1.6
					c0,0.1,0.1,0.1,0.1,0.1c0.8,0.5,1.3,1.4,1.9,2.2c-0.2,0.1-0.3,0.2-0.5,0.4c0.6,1,1.1,2,1.7,2.9c0,0.1,0,0.2,0,0.3
					c-0.4,0.5-0.8,0.5-1.1-0.1c-0.5-0.8-1-1.7-1.4-2.5C9,139,8.9,139,8.6,139c-0.7,0.2-1.5,0.2-2.3,0C6,138.9,6,139,6,139.3
					c0,0.9,0,1.7,0,2.4c0,0.4-0.1,0.6-0.4,0.8c-0.1,0-0.2,0-0.3,0c-0.3-0.2-0.4-0.4-0.4-0.7c0-0.8-0.1-1.7-0.1-2.5
					c0-0.2,0-0.5,0.1-0.8c0,0-0.1-0.1-0.2-0.2c0.7-0.4,1.3-0.9,1.8-1.2c-0.1-0.7-0.3-1.3-0.4-2c-0.1-0.4,0-0.7,0-1.1
					c-0.2-1.3-0.4-2.6-0.6-3.9c0-0.3,0-0.5,0.2-0.6C5.7,129.5,5.8,129.5,5.9,129.5z"/>
				<path class="st0" d="M7.8,131.6c0.5,0,0.9,0.4,0.9,0.9s-0.4,0.9-0.9,0.9s-0.9-0.4-0.9-1C6.9,131.9,7.3,131.6,7.8,131.6z"/>
			</g>
		</g>
	</g>
	<g id="lead_2_">
		<g>
			<path class="st2" d="M5.7,135.3L5.7,135.3c0,0.1-0.1,0.2-0.1,0.2c-0.3,0.2-0.5,0.5-0.8,0.7c0,0,0,0,0,0.1c0,0.4,0.1,0.7,0.2,1.1
				c0,0.1,0,0.2-0.1,0.2c0,0,0,0-0.1,0c0,0,0,0-0.1,0c-0.3-0.2-0.7-0.4-1-0.5H3.6c-0.3,0.2-0.7,0.3-1,0.5c0,0,0,0-0.1,0
				s-0.1-0.1-0.1-0.2c0.1-0.4,0.1-0.8,0.2-1.1c0,0,0,0,0-0.1c-0.3-0.2-0.6-0.5-0.8-0.7l-0.1-0.1c0,0,0,0,0-0.1
				c0-0.1,0.1-0.1,0.2-0.1l0,0c0.3-0.1,0.7-0.1,1.1-0.2l0,0c0.2-0.3,0.3-0.7,0.5-1c0-0.1,0.1-0.1,0.1-0.1s0,0,0.1,0s0.1,0.1,0.1,0.1
				c0.2,0.3,0.4,0.6,0.5,1c0,0,0,0,0.1,0h0.1c0.3,0,0.6,0.1,1,0.1C5.6,135.2,5.6,135.2,5.7,135.3z"/>
		</g>
	</g>
</g>
<g id="dancer_3_">
	<circle cx="8" cy="152" r="8"/>
	<g id="dancer_2_">
		<g>
			<g>
				<path class="st0" d="M5.9,145.5c0.1,0.2,0.2,0.3,0.3,0.5c0.2,1.1,0.4,2.2,0.5,3.3c0,0.1,0,0.2,0.1,0.3c0.4,0,0.8,0,1.2,0
					c0.2,0,0.4,0,0.6,0.1c0.5,0.2,1,0.4,1.6,0.7c0.2,0.1,0.3,0.3,0.3,0.5c-0.1,0.5-0.1,1.1-0.2,1.6c0,0.3-0.1,0.4-0.4,0.4
					c-0.3,0-0.4-0.2-0.3-0.5c0-0.4,0-0.7,0.1-1.1c0.1-0.3,0-0.5-0.3-0.6c-0.4,0-0.7-0.2-1.1-0.3c0,0.6,0,1.1,0.2,1.6
					c0,0.1,0.1,0.1,0.1,0.1c0.8,0.5,1.3,1.4,1.9,2.2c-0.2,0.1-0.3,0.2-0.5,0.4c0.6,1,1.1,2,1.7,2.9c0,0.1,0,0.2,0,0.3
					c-0.4,0.5-0.8,0.5-1.1-0.1c-0.5-0.8-1-1.7-1.4-2.5C9,155,8.9,155,8.6,155c-0.7,0.2-1.5,0.2-2.3,0C6,154.9,6,155,6,155.3
					c0,0.9,0,1.7,0,2.4c0,0.4-0.1,0.6-0.4,0.8c-0.1,0-0.2,0-0.3,0c-0.3-0.2-0.4-0.4-0.4-0.7c0-0.8-0.1-1.7-0.1-2.5
					c0-0.2,0-0.5,0.1-0.8c0,0-0.1-0.1-0.2-0.2c0.7-0.4,1.3-0.9,1.8-1.2c-0.1-0.7-0.3-1.3-0.4-2c-0.1-0.4,0-0.7,0-1.1
					c-0.2-1.3-0.4-2.6-0.6-3.9c0-0.3,0-0.5,0.2-0.6C5.7,145.5,5.8,145.5,5.9,145.5z"/>
				<path class="st0" d="M7.8,147.6c0.5,0,0.9,0.4,0.9,0.9s-0.4,0.9-0.9,0.9s-0.9-0.4-0.9-1C6.9,147.9,7.3,147.6,7.8,147.6z"/>
			</g>
		</g>
	</g>
</g>
<g id="visual_1_">
	<circle cx="8" cy="168" r="8"/>
	<g id="visual">
		<path class="st0" d="M9.6,168.7c1.4-0.6,2.2-2.1,2.1-3.6c-0.2-1.4-1.2-2.6-2.5-3c-0.3,0-0.5-0.1-0.7-0.1s-0.4,0-0.6,0
			c-0.1,0-0.2,0-0.3,0c-2.4,0.4-3.7,3-2.5,5.1c0.4,0.8,0.9,1.3,1.6,1.6c0.4,0.2,0.6,0.4,0.6,0.9c0,0.6,0,1.1,0,1.7
			c0,0.3-0.1,0.5-0.2,0.8c-0.4,0.7-0.1,1.6,0.7,1.9c0.1,0,0.2,0,0.3,0h0.1h0.1c0.9-0.1,1.4-1.1,1-1.9c-0.1-0.3-0.2-0.5-0.2-0.8
			c0-0.6,0-1.1,0-1.7C9,169.1,9.2,168.9,9.6,168.7z M8.7,171.7c0,0.2,0.1,0.3,0.1,0.5c0.1,0.2,0.2,0.5,0.1,0.8
			c-0.1,0.4-0.6,0.7-1,0.5c-0.4-0.1-0.6-0.6-0.5-1c0-0.1,0.1-0.2,0.1-0.2c0.1-0.2,0.1-0.3,0.1-0.5c0-0.9,0-1.7,0-2.6
			c0-0.3-0.1-0.5-0.4-0.6c0-0.3-0.2-0.3-0.3-0.4c-1.1-0.5-1.8-1.7-1.7-3c0.2-1.3,1.2-2.3,2.4-2.6c0.2,0,0.3,0,0.5,0
			c1.5,0,2.8,1.2,3,2.7c0.1,1.3-0.6,2.4-1.7,3c-0.2,0-0.3,0.1-0.5,0.2c-0.2,0.1-0.2,0.3-0.2,0.5C8.7,169.9,8.6,170.8,8.7,171.7z"/>
		<path class="st0" d="M4.7,168.5c-0.2,0.7-0.7,1.2-1.4,1.4c0.7,0.2,1.2,0.7,1.4,1.4c0.3-0.7,0.7-1.2,1.5-1.4
			C5.4,169.7,4.9,169.2,4.7,168.5z M4.7,170.6c-0.1-0.3-0.3-0.6-0.7-0.7c0.3-0.1,0.6-0.3,0.7-0.7c0.1,0.4,0.3,0.6,0.7,0.7
			C5.1,170,4.8,170.3,4.7,170.6z"/>
		<path class="st0" d="M4.2,167.2c-0.5-0.1-0.8-0.5-1-1c-0.2,0.6-0.5,0.9-1,1c0.5,0.1,0.8,0.5,1,1C3.4,167.7,3.7,167.3,4.2,167.2z"
			/>
		<path class="st0" d="M11.7,170c-0.2,0.8-0.7,1.2-1.4,1.5c0.7,0.2,1.2,0.7,1.4,1.4c0.2-0.7,0.8-1.3,1.5-1.4
			C12.4,171.3,11.9,170.8,11.7,170z M11.7,172c-0.1-0.3-0.3-0.5-0.5-0.5c0.3-0.1,0.5-0.3,0.6-0.6c0.1,0.3,0.3,0.5,0.6,0.6
			C12,171.6,11.8,171.8,11.7,172z"/>
		<path class="st0" d="M10.7,165.5c0-1.4-1.1-2.5-2.5-2.5s-2.5,1.1-2.5,2.5s1.1,2.5,2.5,2.5S10.7,166.9,10.7,165.5z M8.2,167.5
			c-1.1,0-2-0.9-2-2s0.9-2,2-2s2,0.9,2,2S9.3,167.5,8.2,167.5z"/>
		<path class="st0" d="M9.6,165.1L9.6,165.1c-0.7,0.6-1.3,1.2-2,1.8C7.8,167,8,167,8.2,167h0.1c0.4-0.4,0.9-0.8,1.3-1.2l0.1-0.1
			C9.7,165.4,9.6,165.3,9.6,165.1z"/>
		<path class="st0" d="M9.2,164.5c-0.7,0.6-1.4,1.3-2.1,1.9c0.1,0.1,0.2,0.2,0.2,0.3c0.7-0.7,1.4-1.3,2.1-1.9
			C9.4,164.7,9.3,164.6,9.2,164.5z"/>
	</g>
</g>
<g id="center_1_">
	<circle cx="8" cy="184" r="8"/>
	<g id="center">
		<path class="st0" d="M12.2,183.7c-0.4-2.2-1.6-3.5-3.9-3.9c0-0.3,0.1-0.6-0.2-0.8c0,0.1-0.2,0.1-0.3,0.1c-0.2,0.2-0.2,0.5-0.2,0.8
			c-2.2,0.3-3.5,1.6-3.8,3.8c-0.3,0-0.6-0.1-0.8,0.2c0,0.1,0,0.2,0,0.3c0.2,0.3,0.5,0.2,0.8,0.2c0.4,2.2,1.6,3.5,3.9,3.9
			c0,0.3-0.1,0.6,0.2,0.8c0.1,0,0.2,0,0.3,0c0.3-0.2,0.2-0.5,0.2-0.8c1-0.1,1.9-0.5,2.6-1.2c0.7-0.7,1.1-1.6,1.2-2.6
			c0.3,0,0.6,0.1,0.8-0.2c0-0.1,0-0.2,0-0.3C12.8,183.7,12.5,183.7,12.2,183.7z M8.4,187.5c-0.1-0.6-0.1-0.7-0.4-0.7
			c-0.5,0-0.4,0.4-0.4,0.7c-1.5-0.1-2.9-1.5-3-3c0.1,0,0.2,0,0.3,0c0.2,0,0.4-0.2,0.4-0.4s-0.2-0.4-0.4-0.4c-0.1,0-0.2,0-0.3,0
			c-0.2-1.2,1.7-3.1,3-3c0,0.3-0.1,0.7,0.4,0.7c0.3,0,0.3-0.1,0.4-0.7c1.2-0.2,3.1,1.8,3,3c-0.3,0-0.7-0.1-0.7,0.4
			c0,0.2,0.1,0.3,0.2,0.4c0.1,0,0.3,0,0.5,0.1C11.3,185.9,10,187.4,8.4,187.5z"/>
		<path class="st0" d="M8,182.6c-0.9,0-1.5,0.6-1.5,1.5s0.7,1.6,1.5,1.6c0.9,0,1.6-0.7,1.6-1.5C9.5,183.2,8.9,182.6,8,182.6z"/>
	</g>
</g>
<g id="maknae_1_">
	<circle cx="8" cy="200" r="8"/>
	<g id="maknae">
		<path class="st0" d="M13.6,200c-0.1-0.1-0.7-1.2-0.7-1.4c-0.6-2-2.3-3.4-4.4-3.6c-0.3,0-0.5-0.2-0.4-0.4c0-0.2,0.1-0.5,0.1-0.7
			c-0.2-0.2-0.4-0.4-0.6-0.5c-0.4,0.5-0.4,1-0.3,1.6H7.2H7.1c-2.2,0.5-3.6,1.9-4.1,4.1c-0.1,0.3-0.2,0.5-0.4,0.6
			c-0.5,0.4-0.7,1-0.6,1.6c0.2,0.7,0.6,1.1,1.3,1.2c0.3,0.1,0.4,0.2,0.5,0.3c1,1.5,2.5,2.3,4.3,2.3s3.1-0.9,4.1-2.3
			c0.1-0.2,0.2-0.2,0.4-0.3C13.9,202.4,14.4,200.9,13.6,200z M12.4,201.8c-0.4,0-0.5,0.2-0.7,0.5c-0.9,1.4-2.2,2.1-3.9,2.1
			c-1.6-0.1-2.8-0.9-3.6-2.3c-0.1-0.2-0.2-0.3-0.4-0.3c-0.6,0-0.9-0.3-0.9-0.7c-0.1-0.4,0.1-0.8,0.6-1c0.1,0,0.2-0.2,0.2-0.3
			c0.2-2,1.5-3.5,3.4-3.9c0.3-0.1,0.6-0.1,0.9-0.1c2.3,0,4.1,1.7,4.3,4c0,0.2,0.1,0.3,0.2,0.3c0.5,0.2,0.7,0.5,0.7,0.9
			C13.1,201.4,12.8,201.8,12.4,201.8z"/>
		<path class="st0" d="M6.8,201.3c-0.2,0.2-0.4,0.4-0.6,0.6c1,1,2.6,1,3.6,0c-0.2-0.2-0.4-0.4-0.6-0.6C8.4,202,7.6,202,6.8,201.3z"
			/>
		<path class="st0" d="M6.7,200.1c0.3,0,0.4-0.2,0.4-0.4s-0.2-0.4-0.4-0.4c-0.3,0-0.4,0.1-0.4,0.4C6.3,199.9,6.5,200.1,6.7,200.1z"
			/>
		<path class="st0" d="M9.3,200.1c0.2,0,0.4-0.2,0.4-0.4s-0.2-0.4-0.4-0.4s-0.4,0.2-0.4,0.4C8.9,199.9,9.1,200.1,9.3,200.1z"/>
	</g>
</g>
<g id="face">
	<circle cx="8" cy="216" r="8"/>
	<g>
		<path class="st0" d="M11.4,214.85c-2.18,0-4.1-1.04-5.29-2.62c-0.6,1.45-1.73,2.63-3.16,3.32c-0.03,0.23-0.05,0.46-0.05,0.7
			c0,2.79,2.26,5.05,5.05,5.05s5.05-2.26,5.05-5.05c0-0.54-0.09-1.05-0.24-1.54C12.32,214.8,11.86,214.85,11.4,214.85z"/>
	</g>
	<path class="st3" d="M8.17,219.5c0,0,1.54,0.15,1.79,0c0.25-0.15,0.56-0.34,0.56-0.34"/>
	<path d="M5.77,215.29c0.09-0.19,0.25-0.19,0.34,0l0.31,0.61c0.04,0.09,0.13,0.15,0.23,0.17l0.68,0.1c0.21,0.03,0.25,0.18,0.1,0.32
		l-0.49,0.48c-0.07,0.07-0.1,0.17-0.09,0.27l0.11,0.68c0.03,0.21-0.09,0.29-0.27,0.2l-0.61-0.32c-0.09-0.05-0.2-0.05-0.28,0
		l-0.61,0.32c-0.18,0.1-0.31,0.01-0.27-0.2l0.11-0.68c0.02-0.1-0.02-0.2-0.09-0.27l-0.49-0.48c-0.15-0.15-0.1-0.29,0.1-0.32
		l0.68-0.1c0.1-0.02,0.19-0.08,0.23-0.17L5.77,215.29z"/>
	<path d="M9.72,215.29c0.09-0.19,0.25-0.19,0.34,0l0.31,0.61c0.04,0.09,0.13,0.15,0.23,0.17l0.68,0.1c0.21,0.03,0.25,0.18,0.1,0.32
		l-0.49,0.48c-0.07,0.07-0.1,0.17-0.09,0.27l0.11,0.68c0.03,0.21-0.09,0.29-0.27,0.2l-0.61-0.32c-0.09-0.05-0.2-0.05-0.28,0
		l-0.61,0.32c-0.18,0.1-0.31,0.01-0.27-0.2l0.11-0.68c0.02-0.1-0.02-0.2-0.09-0.27L8.4,216.5c-0.15-0.15-0.1-0.29,0.1-0.32l0.68-0.1
		c0.1-0.02,0.19-0.08,0.23-0.17L9.72,215.29z"/>
</g>
<g id="all_1_">
	<circle cx="8" cy="232" r="8"/>
	<g id="all">
		<g>
			<path class="st0" d="M7.8,237.6c-0.1,0-0.2,0-0.3,0c-0.4,0-0.9-0.1-1.3-0.2c-0.1,0-0.2-0.1-0.3-0.1c-0.1,0-0.1-0.1-0.1-0.2
				c0-0.3,0-0.6,0-1c0-0.5,0.2-1,0.6-1.4c0.3-0.3,0.7-0.6,1.2-0.7c0.7-0.1,1.4,0,1.9,0.5c0.4,0.3,0.6,0.8,0.7,1.3c0,0.1,0,0.2,0,0.3
				c0,0.3,0,0.5,0,0.8c0,0.1-0.1,0.2-0.2,0.3c-0.2,0.1-0.3,0.2-0.5,0.2c-0.3,0.1-0.6,0.1-0.8,0.1s-0.3,0-0.5,0l0,0
				C8.1,237.6,7.9,237.6,7.8,237.6z"/>
			<path class="st0" d="M1.9,234.5c0-0.1,0-0.1,0-0.2c0.1-0.3,0.2-0.6,0.4-0.9c0.4-0.4,0.8-0.8,1.4-0.9c0.5-0.1,0.9,0,1.4,0.2
				s0.8,0.6,1,1.1c0,0.1,0.1,0.2,0.1,0.3c0,0,0,0,0,0.1c-0.2,0.2-0.4,0.4-0.5,0.6c-0.2,0.3-0.3,0.6-0.3,0.9c0,0.1,0,0.2,0,0.3l0,0
				c-0.5,0.1-1.1,0.1-1.6,0.1c-0.3,0-0.7-0.1-1-0.1c-0.2,0-0.4-0.1-0.5-0.2c-0.1,0-0.2-0.1-0.2-0.2C1.9,235.2,1.9,234.9,1.9,234.5z"
				/>
			<path class="st0" d="M14.1,235.5c0,0.1-0.1,0.2-0.2,0.2c-0.2,0.1-0.4,0.2-0.7,0.2c-0.2,0.1-0.5,0.1-0.8,0.1s-0.6,0-1,0
				c-0.3,0-0.6,0-0.8-0.1l0,0c0-0.3-0.1-0.6-0.2-0.9c-0.2-0.4-0.4-0.7-0.7-0.9c0,0,0,0,0-0.1c0.1-0.4,0.4-0.8,0.7-1.1
				c0.3-0.3,0.7-0.5,1.1-0.5c0.8-0.1,1.4,0.2,1.9,0.7c0.3,0.3,0.4,0.7,0.5,1.1c0,0.1,0,0.1,0,0.2C14.1,234.9,14.1,235.2,14.1,235.5z
				"/>
			<path class="st0" d="M10,226.4c0.1,0,0.2,0,0.2,0c0.3,0.1,0.6,0.3,0.7,0.6c0.1,0.2,0.2,0.4,0.1,0.7c0,0.3-0.2,0.6-0.4,0.8
				c-0.3,0.2-0.6,0.3-0.9,0.3c-0.2,0-0.5-0.1-0.7-0.3c-0.2-0.3-0.3-0.6-0.3-1c0-0.3,0.2-0.6,0.5-0.9c0.2-0.2,0.4-0.2,0.6-0.3l0,0
				C9.9,226.4,9.9,226.4,10,226.4z"/>
			<path class="st0" d="M6.1,226.4c0.1,0,0.2,0,0.2,0c0.4,0.1,0.6,0.3,0.8,0.6c0.2,0.2,0.2,0.5,0.2,0.8s-0.2,0.5-0.4,0.8
				c-0.2,0.1-0.4,0.2-0.6,0.2c-0.3,0.1-0.5,0-0.8-0.1c-0.3-0.2-0.5-0.4-0.6-0.7c-0.1-0.4-0.1-0.7,0.2-1c0.2-0.3,0.5-0.5,0.8-0.5H6
				C6,226.4,6.1,226.4,6.1,226.4z"/>
			<path class="st0" d="M2.7,230.8c0-0.8,0.7-1.5,1.5-1.5s1.5,0.7,1.5,1.5s-0.7,1.5-1.5,1.5C3.3,232.2,2.7,231.6,2.7,230.8z"/>
			<path class="st0" d="M10.4,230.8c0-0.8,0.7-1.5,1.5-1.5s1.5,0.7,1.5,1.5s-0.7,1.5-1.5,1.5C11.1,232.2,10.4,231.6,10.4,230.8z"/>
			<path class="st0" d="M6.6,232.2c0-0.8,0.7-1.5,1.5-1.5s1.5,0.7,1.5,1.5c-0.1,0.8-0.8,1.5-1.6,1.5S6.6,233,6.6,232.2z"/>
			<path class="st0" d="M10.7,232.3c-0.5,0.2-0.6,0.4-0.9,0.7c0.2-0.6,0.2-1.2-0.1-1.7s-0.8-0.9-1.4-1c0.2-1,1.4-1.6,2.4-1
				c-0.5,0.4-0.7,0.9-0.7,1.5C9.9,231.4,10.2,231.9,10.7,232.3z"/>
			<path class="st0" d="M6.2,233c-0.2-0.3-0.5-0.5-0.9-0.7c0.5-0.4,0.7-0.9,0.7-1.5c0-0.6-0.3-1.1-0.7-1.5c0.9-0.5,2.1,0,2.4,1.1
				c-0.6,0.1-1.1,0.4-1.4,1C6,231.9,6,232.5,6.2,233z"/>
		</g>
	</g>
</g>
<g id="none">
	<circle cx="8" cy="248" r="8"/>
	<path class="st0" d="M11.1,248.9H4.9c-0.5,0-0.9-0.4-0.9-0.9l0,0c0-0.5,0.4-0.8,0.8-0.8H11c0.6-0.1,1,0.3,1,0.8l0,0
		C12,248.5,11.6,248.9,11.1,248.9z"/>
</g>
<g id="unknown">
	<circle cx="8" cy="264" r="8"/>
	<path class="st0" d="M4.66,261.77H4.1v-1.11h0.56V261.77z M11.34,261.22h0.56v2.23h-0.56V264h-0.56v0.56h-3.9V264H6.33v-0.56h0.56
		v-0.56h2.23v-0.56H4.66v-0.56h0.56v-0.56h0.56v-0.56H4.66v-0.56h6.13v0.56h0.56V261.22z M8.56,265.67h0.56v1.67H8.56v0.56H6.89
		v-0.56H6.33v-1.67h0.56v-0.56h1.67V265.67z"/>
</g>
</svg>
