<?xml version="1.0" encoding="utf-8"?>
<!-- Generator: Adobe Illustrator 22.1.0, SVG Export Plug-In . SVG Version: 6.00 Build 0)  -->
<svg version="1.1" id="Layer_1" xmlns="http://www.w3.org/2000/svg" xmlns:xlink="http://www.w3.org/1999/xlink" x="0px" y="0px"
	 viewBox="0 0 100 100" style="enable-background:new 0 0 100 100;" xml:space="preserve">
<style type="text/css">
	.st0{fill:#FFFFFF;}
</style>
<circle class="st0" cx="50" cy="50" r="47"/>
<path d="M50,100c12.7,0,24.3-4.8,33.2-12.6C78.5,71.8,65.4,60.5,50,60.5S21.5,71.8,16.8,87.4C25.7,95.2,37.3,100,50,100z"/>
<circle cx="50" cy="37.5" r="18"/>
<path class="st0" d="M50,6c24.3,0,44,19.7,44,44S74.3,94,50,94S6,74.3,6,50S25.7,6,50,6 M50,0C22.4,0,0,22.4,0,50s22.4,50,50,50
	s50-22.4,50-50S77.6,0,50,0L50,0z"/>
</svg>
