<?xml version="1.0" encoding="utf-8"?>
<!-- Generator: Adobe Illustrator 22.1.0, SVG Export Plug-In . SVG Version: 6.00 Build 0)  -->
<svg version="1.1" id="Layer_1" xmlns="http://www.w3.org/2000/svg" xmlns:xlink="http://www.w3.org/1999/xlink" x="0px" y="0px"
	 viewBox="0 0 105 105" style="enable-background:new 0 0 105 105;" xml:space="preserve">
<style type="text/css">
	.st0{fill:#EBEBF2;}
	.st1{fill:#B5B5BA;}
</style>
<rect class="st0" width="105" height="105"/>
<g id="pWAC53.tif">
	<g>
		<g>
			<path class="st1" d="M20.5,83.9c-2.7-0.2-5.4-1.1-7.8-2.3c-4.7-2.4-6-6.9-6.5-11.8C5,59.3,5.1,48.8,5.8,38.2
				c0.2-2.5,0.6-5,1.1-7.5c1.1-5.1,5.6-9.1,11.4-9.5c10.1-0.7,20.2-1.3,30.3-1.4c10.5-0.1,20.9,0.4,31.4,0.7c2.7,0.1,5.4,0.4,8,0.9
				c5.8,1.1,9.2,4.6,10.2,10.4c1.3,7.5,1.7,15.1,1.5,22.6c-0.2,6.1-0.7,12.3-1.5,18.4c-0.8,6-5.2,10.3-11.3,10.7
				c-10.4,0.7-20.9,1-31.3,1.5c-1.9,0.1-3.8,0-5.6,0C49.9,85.2,30.2,84.6,20.5,83.9z M43.6,38c0,9.8,0,19.2,0,28.9
				c7.9-4.9,15.6-9.6,23.5-14.5C59.2,47.6,51.5,42.8,43.6,38z"/>
		</g>
	</g>
</g>
</svg>
