<?xml version="1.0" encoding="utf-8"?>
<!-- Generator: Adobe Illustrator 22.1.0, SVG Export Plug-In . SVG Version: 6.00 Build 0)  -->
<svg version="1.1" id="Layer_1" xmlns="http://www.w3.org/2000/svg" xmlns:xlink="http://www.w3.org/1999/xlink" x="0px" y="0px"
	 viewBox="0 0 105 105" style="enable-background:new 0 0 105 105;" xml:space="preserve">
<style type="text/css">
	.st0{fill:url(#SVGID_1_);}
	.st1{fill:none;stroke:#FFFFFF;stroke-width:7;stroke-miterlimit:10;}
</style>
<linearGradient id="SVGID_1_" gradientUnits="userSpaceOnUse" x1="52.5" y1="0" x2="52.5" y2="105">
	<stop  offset="0" style="stop-color:#EBEBF2"/>
	<stop  offset="1" style="stop-color:#BCBCC2"/>
</linearGradient>
<rect class="st0" width="105" height="105"/>
<path class="st1" d="M48.4,25.5c1.7-3.5,4.5-3.5,6.2,0l5.1,10.3c1.7,3.5,6.2,6.7,10,7.3L81,44.7c3.8,0.6,4.7,3.2,1.9,5.9l-8.2,8
	c-2.8,2.7-4.5,8-3.8,11.8l1.9,11.3c0.7,3.8-1.6,5.4-5,3.6l-10.1-5.3c-3.4-1.8-9-1.8-12.4,0l-10.1,5.3c-3.4,1.8-5.7,0.2-5-3.6
	l1.9-11.3c0.7-3.8-1.1-9.1-3.8-11.8l-8.2-8c-2.8-2.7-1.9-5.3,1.9-5.9L33.3,43c3.8-0.6,8.3-3.8,10-7.3L48.4,25.5z"/>
</svg>
