<?xml version="1.0" encoding="utf-8"?>
<!-- Generator: Adobe Illustrator 23.0.2, SVG Export Plug-In . SVG Version: 6.00 Build 0)  -->
<svg version="1.1" id="Layer_1" xmlns="http://www.w3.org/2000/svg" xmlns:xlink="http://www.w3.org/1999/xlink" x="0px" y="0px"
	 viewBox="0 0 100 100" style="enable-background:new 0 0 100 100;" xml:space="preserve">
<path d="M94.95,0H5.05C2.27,0,0,2.27,0,5.05v89.91C0,97.73,2.27,100,5.05,100h89.91c2.78,0,5.05-2.27,5.05-5.05V5.05
	C100,2.27,97.73,0,94.95,0z M46.89,73c-0.44,4.18-2.25,8.23-5.45,11.44c-7.42,7.42-19.45,7.42-26.87,0s-7.42-19.45,0-26.87
	c7.42-7.42,19.45-7.42,26.87,0c3.2,3.2,5.01,7.26,5.45,11.44H28v4h18.89V73z M28,48C17.51,48,9,39.49,9,29s8.51-19,19-19
	c4.53,0,8.68,1.59,11.94,4.23L26.59,27.59l2.83,2.83l13.36-13.36C45.41,20.32,47,24.47,47,29C47,39.49,38.49,48,28,48z M72,90
	c-4.53,0-8.68-1.59-11.94-4.23l13.36-13.36l-2.83-2.83L57.23,82.94C54.59,79.68,53,75.53,53,71c0-10.49,8.51-19,19-19s19,8.51,19,19
	S82.49,90,72,90z M86.77,40.94L73.41,27.59l-2.83,2.83l13.36,13.36C80.68,46.41,76.53,48,72,48c-10.49,0-19-8.51-19-19
	s8.51-19,19-19s19,8.51,19,19C91,33.53,89.41,37.68,86.77,40.94z"/>
</svg>
