<?xml version="1.0" encoding="utf-8"?>
<!-- Generator: Adobe Illustrator 23.0.2, SVG Export Plug-In . SVG Version: 6.00 Build 0)  -->
<svg version="1.1" id="Layer_1" xmlns="http://www.w3.org/2000/svg" xmlns:xlink="http://www.w3.org/1999/xlink" x="0px" y="0px"
	 viewBox="0 0 100 100" style="enable-background:new 0 0 100 100;" xml:space="preserve">
<path d="M94.95,0H5.05C2.27,0,0,2.27,0,5.05v89.91C0,97.73,2.27,100,5.05,100h89.91c2.78,0,5.05-2.27,5.05-5.05V5.05
	C100,2.27,97.73,0,94.95,0z M92.77,84.46c-0.08,0.3-0.15,0.6-0.25,0.89c-0.7,2.01-2.01,3.42-4.07,4.08
	c-0.41,0.13-0.85,0.19-1.27,0.28c-24.79,0-49.58,0-74.37,0c-0.05-0.01-0.11-0.03-0.16-0.04c-2.33-0.33-3.97-1.57-4.93-3.71
	c-0.22-0.48-0.33-1-0.49-1.5c0-0.57,0-1.15,0-1.72c0.01-0.03,0.04-0.05,0.04-0.08c0.13-0.73,0.41-1.4,0.76-2.04
	c4.88-8.95,9.77-17.91,14.65-26.86c7.31-13.4,14.61-26.79,21.92-40.19c0.81-1.49,2.02-2.52,3.64-3.02c0.4-0.12,0.82-0.18,1.23-0.26
	c0.35,0,0.7,0,1.05,0c0.24,0.04,0.48,0.08,0.72,0.13c1.89,0.43,3.26,1.53,4.19,3.22c3.11,5.71,6.23,11.42,9.34,17.14
	c9.07,16.63,18.14,33.25,27.2,49.89c0.28,0.51,0.45,1.08,0.66,1.63c0.06,0.16,0.09,0.34,0.13,0.51
	C92.77,83.35,92.77,83.91,92.77,84.46z M56.63,35.47c0.22,0.22,0.26,0.52,0.24,0.82c-0.07,1.75-0.14,3.5-0.21,5.25
	c-0.07,1.84-0.15,3.69-0.22,5.53l0,0c-0.11,2.69-0.21,5.37-0.32,8.06c-0.04,0.9-0.07,1.8-0.11,2.69c-0.02,0.67-0.34,1.08-1,1.24
	c-0.22,0.06-0.45,0.09-0.68,0.09c-2.91,0.01-5.82,0.01-8.73,0c-0.47,0-0.92-0.09-1.3-0.39c-0.23-0.18-0.36-0.42-0.37-0.71
	c-0.08-2.13-0.16-4.26-0.24-6.39c-0.11-2.82-0.21-5.64-0.32-8.46c-0.08-2.23-0.17-4.47-0.25-6.7c-0.04-1.01,0.72-1.78,1.74-1.78
	c1.83,0,3.66,0,5.49,0c1.57,0,3.13,0.01,4.7,0C55.72,34.71,56.2,35.04,56.63,35.47z M56.11,66.92c0.01,2.98,0.01,5.97,0,8.95
	c0,1-0.65,1.63-1.66,1.63c-1.49,0-2.97,0-4.46,0c-1.48,0-2.96,0-4.44,0c-1.01,0-1.66-0.64-1.66-1.65c0-2.97,0-5.95,0-8.92
	c0-1,0.65-1.65,1.64-1.65c2.97,0,5.95,0,8.92,0C55.45,65.28,56.11,65.92,56.11,66.92z"/>
</svg>
