<?xml version="1.0" encoding="utf-8"?>
<!-- Generator: Adobe Illustrator 22.0.1, SVG Export Plug-In . SVG Version: 6.00 Build 0)  -->
<svg version="1.1" id="Layer_1" xmlns="http://www.w3.org/2000/svg" xmlns:xlink="http://www.w3.org/1999/xlink" x="0px" y="0px"
	 viewBox="0 0 16 16" style="enable-background:new 0 0 16 16;" xml:space="preserve">
<style type="text/css">
	.st0{fill:#598FFD;}
	.st1{fill:#FCFEFA;}
</style>
<g id="Cc4TKX.tif">
	<g>
		<g>
			<path class="st0" d="M8,0c4.4,0,8,3.6,8,8c0,4.4-3.6,8-8,8c-4.4,0-8-3.6-8-8C0,3.6,3.6,0,8,0z"/>
			<path class="st1" d="M12.5,5.7c0,0.1,0,0.1-0.1,0.2c-0.2,0.2-0.3,0.4-0.5,0.7c-0.9,1-1.8,2-2.7,3.1c-0.4,0.5-0.9,1-1.3,1.5
				c-0.1,0.2-0.3,0.3-0.4,0.4c-0.2,0.2-0.4,0.2-0.7,0.1c-0.3-0.1-0.5-0.3-0.8-0.5c-0.8-0.6-1.6-1.2-2.4-1.8C3.4,9.2,3.4,8.9,3.5,8.7
				c0.1-0.2,0.3-0.4,0.5-0.6c0.2-0.3,0.5-0.5,0.8-0.8c0.1-0.1,0.1-0.1,0.2,0c0.3,0.2,0.5,0.4,0.8,0.6c0.3,0.2,0.6,0.5,0.9,0.7
				c0.1,0,0.1,0.1,0.2,0c0.3-0.4,0.7-0.7,1-1.1C8.5,6.9,9,6.2,9.6,5.6c0.3-0.4,0.6-0.7,0.9-1.1c0.2-0.2,0.2-0.2,0.4-0.1
				c0.2,0.1,0.3,0.2,0.5,0.3c0.3,0.2,0.6,0.4,0.9,0.6c0.1,0,0.1,0.1,0.2,0.2C12.5,5.6,12.5,5.6,12.5,5.7z"/>
		</g>
	</g>
</g>
</svg>
