<?xml version="1.0" encoding="utf-8"?>
<!-- Generator: Adobe Illustrator 22.1.0, SVG Export Plug-In . SVG Version: 6.00 Build 0)  -->
<svg version="1.1" id="Layer_1" xmlns="http://www.w3.org/2000/svg" xmlns:xlink="http://www.w3.org/1999/xlink" x="0px" y="0px"
	 viewBox="0 0 16 16" style="enable-background:new 0 0 16 16;" xml:space="preserve">
<style type="text/css">
	.st0{fill:#49D156;}
</style>
<path class="st0" d="M8,0C3.6,0,0,3.6,0,8s3.6,8,8,8s8-3.6,8-8S12.4,0,8,0z M12.1,6.6l-4.5,5.1c-0.2,0.2-0.5,0.2-0.7,0.1L3.7,9.6
	C3.4,9.4,3.4,9.1,3.6,8.9l1-1.4C4.7,7.2,5,7.2,5.3,7.3l1.1,0.8C6.6,8.3,6.9,8.2,7.1,8L10,4.8c0.2-0.2,0.5-0.2,0.7,0L12,5.9
	C12.2,6.1,12.2,6.4,12.1,6.6z"/>
</svg>
