<?xml version="1.0" encoding="utf-8"?>
<!-- Generator: Adobe Illustrator 22.1.0, SVG Export Plug-In . SVG Version: 6.00 Build 0)  -->
<svg version="1.1" id="Layer_1" xmlns="http://www.w3.org/2000/svg" xmlns:xlink="http://www.w3.org/1999/xlink" x="0px" y="0px"
	 viewBox="0 0 16 16" style="enable-background:new 0 0 16 16;" xml:space="preserve">
<style type="text/css">
	.st0{fill:#49D156;}
	.st1{fill:#707070;}
</style>
<path class="st0" d="M3.9,9l3.2,2.2c0.2,0.1,0.5,0.1,0.7-0.1L12.3,6c0.1-0.2,0.1-0.5-0.1-0.7l-1.3-1.1c-0.2-0.2-0.5-0.2-0.7,0
	L7.3,7.4C7.1,7.6,6.8,7.7,6.6,7.5L5.5,6.7C5.2,6.6,4.9,6.6,4.8,6.9l-1,1.4C3.6,8.5,3.6,8.8,3.9,9z"/>
<path class="st1" d="M13,2c0.6,0,1,0.4,1,1v10c0,0.6-0.4,1-1,1H3c-0.6,0-1-0.4-1-1V3c0-0.6,0.4-1,1-1H13 M13,0H3C1.3,0,0,1.3,0,3v10
	c0,1.7,1.3,3,3,3h10c1.7,0,3-1.3,3-3V3C16,1.3,14.7,0,13,0L13,0z"/>
</svg>
