<?xml version="1.0" encoding="utf-8"?>
<!-- Generator: Adobe Illustrator 22.0.1, SVG Export Plug-In . SVG Version: 6.00 Build 0)  -->
<svg version="1.1" id="Layer_1" xmlns="http://www.w3.org/2000/svg" xmlns:xlink="http://www.w3.org/1999/xlink" x="0px" y="0px"
	 viewBox="0 0 16 16" style="enable-background:new 0 0 16 16;" xml:space="preserve">
<style type="text/css">
	.st0{display:none;}
	.st1{display:inline;fill:#FFFFFF;}
	.st2{display:inline;}
	.st3{fill:#FFFFFF;}
	.st4{display:none;fill:#FFFFFF;}
	.st5{fill:#FFD700;}
	.st6{fill:#C0C0C0;}
</style>
<circle cx="8" cy="8" r="8"/>
<g id="leader" class="st0">
	<path class="st1" d="M13.4,5.8c-0.2-0.4-0.7-0.6-1.1-0.4c-0.4,0.2-0.6,0.7-0.3,1.1c0,0.1,0.1,0.1,0.1,0.2c-0.7,0.6-1.4,1.1-2.1,1.7
		C9.5,7.5,8.9,6.6,8.4,5.7c0.1-0.1,0.2-0.2,0.2-0.3C8.9,5,8.8,4.5,8.2,4.1c-0.1,0-0.2,0-0.4,0C7.1,4.5,7,5.1,7.6,5.7
		C7.1,6.6,6.5,7.5,6,8.4c-0.7-0.6-1.4-1.2-2-1.7C4,6.5,4.1,6.3,4.1,6.2c0-0.3-0.2-0.7-0.5-0.8c-0.3-0.1-0.7,0-0.9,0.3
		C2.6,5.8,2.5,5.8,2.5,5.9c0,0.1,0,0.3,0,0.4C2.7,6.7,2.9,7,3.4,6.9c0.1,0.7,0.2,1.3,0.2,2c0.1,0.7,0.2,1.4,0.3,2.1
		c0,0.1,0.2,0.2,0.3,0.3c0.7,0.2,1.4,0.4,2.1,0.4c1.7,0.2,3.3,0.1,4.9-0.3c0.8-0.2,0.8-0.2,0.9-1c0.1-1.1,0.3-2.2,0.4-3.3
		c0-0.2,0.1-0.3,0.3-0.3c0.4,0,0.5-0.3,0.7-0.6c0-0.1,0-0.2,0-0.3C13.5,5.9,13.4,5.9,13.4,5.8z"/>
</g>
<g id="star" class="st0">
	<g class="st2">
		<g>
			<path class="st3" d="M8.8,2.3C8.8,2.3,8.8,2.4,8.8,2.3C8.8,2.4,8.8,2.4,8.8,2.3C8.7,2.5,8.6,2.6,8.5,2.7c0,0,0,0,0,0
				c0,0.1,0.1,0.3,0.1,0.4c0,0,0,0.1,0,0.1c0,0,0,0,0,0c0,0,0,0,0,0C8.3,3.2,8.2,3.1,8,3.1c0,0,0,0,0,0C7.8,3.1,7.7,3.2,7.6,3.3
				c0,0,0,0,0,0c0,0-0.1,0,0-0.1c0-0.2,0.1-0.3,0.1-0.5c0,0,0,0,0,0C7.4,2.6,7.3,2.5,7.2,2.4c0,0,0,0,0,0c0,0,0,0,0,0c0,0,0,0,0.1,0
				c0,0,0,0,0,0c0.1,0,0.3,0,0.4-0.1c0,0,0,0,0,0c0.1-0.1,0.1-0.3,0.2-0.4c0,0,0,0,0,0c0,0,0,0,0,0c0,0,0,0,0,0
				c0.1,0.1,0.1,0.3,0.2,0.4c0,0,0,0,0,0c0,0,0,0,0.1,0C8.5,2.3,8.6,2.3,8.8,2.3C8.8,2.3,8.8,2.3,8.8,2.3z"/>
		</g>
	</g>
</g>
<g id="vocalist">
	<path class="st3" d="M9.4,10.7c0-0.4,0-0.8,0-1.2c0-0.3,0.1-0.5,0.4-0.6c0.1,0,0.2-0.1,0.3-0.1c-0.5-1-0.9-1.9-1.4-2.9
		C8.3,6.1,7.8,6.4,7.4,6.6c-1.7,1-3.3,2-5,3C2.1,9.8,2,10,2.1,10.3c0.1,0.1,0.1,0.3,0.2,0.4c0.3,0.7,0.4,0.8,1.2,0.5
		c1.1-0.4,2.3-0.8,3.5-1.3c0,0.3,0,0.5,0,0.7c0,0.7,0,0.7,0.7,0.9c0,1.5,0,3,0,4.5c0.3,0,0.5,0,0.8,0c0.1,0,0.2,0,0.4,0
		c0-1.5,0-3,0-4.5C9.4,11.4,9.4,11.3,9.4,10.7z"/>
	<path class="st3" d="M12.4,4.1c-0.9-0.4-2-0.1-2.7,0.6C9.6,4.8,9.5,5,9.6,5.2c0.5,1.1,1.1,2.2,1.6,3.3c0.1,0.2,0.2,0.3,0.4,0.2
		c1.3-0.1,2.3-1.1,2.3-2.4C13.9,5.3,13.3,4.4,12.4,4.1z"/>
</g>
<g id="dancer" class="st0">
	<g class="st2">
		<g>
			<path class="st3" d="M5.9,1.5C6,1.7,6.1,1.8,6.2,2c0.2,1.1,0.4,2.2,0.5,3.3c0,0.1,0,0.2,0.1,0.3c0.4,0,0.8,0,1.2,0
				c0.2,0,0.4,0,0.6,0.1c0.5,0.2,1,0.4,1.6,0.7c0.2,0.1,0.3,0.3,0.3,0.5c-0.1,0.5-0.1,1.1-0.2,1.6c0,0.3-0.1,0.4-0.4,0.4
				c-0.3,0-0.4-0.2-0.3-0.5c0-0.4,0-0.7,0.1-1.1c0.1-0.3,0-0.5-0.3-0.6C9,6.7,8.7,6.5,8.3,6.4C8.3,7,8.3,7.5,8.5,8
				c0,0.1,0.1,0.1,0.1,0.1c0.8,0.5,1.3,1.4,1.9,2.2c-0.2,0.1-0.3,0.2-0.5,0.4c0.6,1,1.1,2,1.7,2.9c0,0.1,0,0.2,0,0.3
				c-0.4,0.5-0.8,0.5-1.1-0.1c-0.5-0.8-1-1.7-1.4-2.5c-0.2-0.3-0.3-0.3-0.6-0.3c-0.7,0.2-1.5,0.2-2.3,0c-0.3-0.1-0.3,0-0.3,0.3
				C6,12.2,6,13,6,13.7c0,0.4-0.1,0.6-0.4,0.8c-0.1,0-0.2,0-0.3,0c-0.3-0.2-0.4-0.4-0.4-0.7c0-0.8-0.1-1.7-0.1-2.5
				c0-0.2,0-0.5,0.1-0.8c0,0-0.1-0.1-0.2-0.2C5.4,9.9,6,9.4,6.5,9.1c-0.1-0.7-0.3-1.3-0.4-2c-0.1-0.4,0-0.7,0-1.1
				C5.9,4.7,5.7,3.4,5.5,2.1c0-0.3,0-0.5,0.2-0.6C5.7,1.5,5.8,1.5,5.9,1.5z"/>
			<path class="st3" d="M7.8,3.6c0.5,0,0.9,0.4,0.9,0.9c0,0.5-0.4,0.9-0.9,0.9c-0.5,0-0.9-0.4-0.9-1C6.9,3.9,7.3,3.6,7.8,3.6z"/>
		</g>
	</g>
</g>
<g id="visual" class="st0">
	<path class="st1" d="M9.6,8.7c1.4-0.6,2.2-2.1,2.1-3.6c-0.2-1.4-1.2-2.6-2.5-3C8.9,2.1,8.7,2,8.5,2C8.3,2,8.1,2,7.9,2
		C7.8,2,7.7,2,7.6,2c-2.4,0.4-3.7,3-2.5,5.1C5.5,7.9,6,8.4,6.7,8.7c0.4,0.2,0.6,0.4,0.6,0.9c0,0.6,0,1.1,0,1.7
		c0,0.3-0.1,0.5-0.2,0.8c-0.4,0.7-0.1,1.6,0.7,1.9C7.9,14,8,14,8.1,14c0,0,0.1,0,0.1,0c0,0,0.1,0,0.1,0c0.9-0.1,1.4-1.1,1-1.9
		c-0.1-0.3-0.2-0.5-0.2-0.8c0-0.6,0-1.1,0-1.7C9,9.1,9.2,8.9,9.6,8.7z M8.7,11.7c0,0.2,0.1,0.3,0.1,0.5c0.1,0.2,0.2,0.5,0.1,0.8
		c-0.1,0.4-0.6,0.7-1,0.5c-0.4-0.1-0.6-0.6-0.5-1c0-0.1,0.1-0.2,0.1-0.2c0.1-0.2,0.1-0.3,0.1-0.5c0-0.9,0-1.7,0-2.6
		c0-0.3-0.1-0.5-0.4-0.6C7.2,8.3,7,8.3,6.9,8.2c-1.1-0.5-1.8-1.7-1.7-3c0.2-1.3,1.2-2.3,2.4-2.6c0.2,0,0.3,0,0.5,0
		c1.5,0,2.8,1.2,3,2.7c0.1,1.3-0.6,2.4-1.7,3C9.2,8.3,9.1,8.4,8.9,8.5C8.7,8.6,8.7,8.8,8.7,9C8.7,9.9,8.6,10.8,8.7,11.7z"/>
	<path class="st1" d="M4.7,8.5C4.5,9.2,4,9.7,3.3,9.9c0.7,0.2,1.2,0.7,1.4,1.4c0.3-0.7,0.7-1.2,1.5-1.4C5.4,9.7,4.9,9.2,4.7,8.5z
		 M4.7,10.6C4.6,10.3,4.4,10,4,9.9c0.3-0.1,0.6-0.3,0.7-0.7C4.8,9.6,5,9.8,5.4,9.9C5.1,10,4.8,10.3,4.7,10.6z"/>
	<path class="st1" d="M4.2,7.2c-0.5-0.1-0.8-0.5-1-1c-0.2,0.6-0.5,0.9-1,1c0.5,0.1,0.8,0.5,1,1C3.4,7.7,3.7,7.3,4.2,7.2z"/>
	<path class="st1" d="M11.7,10c-0.2,0.8-0.7,1.2-1.4,1.5c0.7,0.2,1.2,0.7,1.4,1.4c0.2-0.7,0.8-1.3,1.5-1.4
		C12.4,11.3,11.9,10.8,11.7,10z M11.7,12c-0.1-0.3-0.3-0.5-0.5-0.5c0.3-0.1,0.5-0.3,0.6-0.6c0.1,0.3,0.3,0.5,0.6,0.6
		C12,11.6,11.8,11.8,11.7,12z"/>
	<path class="st1" d="M10.7,5.5C10.7,4.1,9.6,3,8.2,3C6.8,3,5.7,4.1,5.7,5.5C5.7,6.9,6.8,8,8.2,8C9.6,8,10.7,6.9,10.7,5.5z M8.2,7.5
		c-1.1,0-2-0.9-2-2c0-1.1,0.9-2,2-2c1.1,0,2,0.9,2,2C10.2,6.6,9.3,7.5,8.2,7.5z"/>
	<path class="st1" d="M9.6,5.1C9.6,5.1,9.6,5.1,9.6,5.1c-0.7,0.6-1.3,1.2-2,1.8C7.8,7,8,7,8.2,7c0,0,0.1,0,0.1,0
		c0.4-0.4,0.9-0.8,1.3-1.2c0,0,0.1-0.1,0.1-0.1C9.7,5.4,9.6,5.3,9.6,5.1z"/>
	<path class="st1" d="M9.2,4.5C8.5,5.1,7.8,5.8,7.1,6.4c0.1,0.1,0.2,0.2,0.2,0.3C8,6,8.7,5.4,9.4,4.8C9.4,4.7,9.3,4.6,9.2,4.5z"/>
</g>
<g id="center" class="st0">
	<path class="st1" d="M12.2,7.6c-0.4-2.2-1.6-3.5-3.9-3.9c0-0.3,0.1-0.6-0.2-0.8C8.1,3,7.9,3,7.8,3C7.6,3.2,7.6,3.5,7.6,3.8
		C5.4,4.1,4.1,5.4,3.8,7.6C3.5,7.6,3.2,7.5,3,7.8c0,0.1,0,0.2,0,0.3c0.2,0.3,0.5,0.2,0.8,0.2c0.4,2.2,1.6,3.5,3.9,3.9
		c0,0.3-0.1,0.6,0.2,0.8c0.1,0,0.2,0,0.3,0c0.3-0.2,0.2-0.5,0.2-0.8c1-0.1,1.9-0.5,2.6-1.2c0.7-0.7,1.1-1.6,1.2-2.6
		c0.3,0,0.6,0.1,0.8-0.2c0-0.1,0-0.2,0-0.3C12.8,7.6,12.5,7.6,12.2,7.6z M8.4,11.4c-0.1-0.6-0.1-0.7-0.4-0.7c-0.5,0-0.4,0.4-0.4,0.7
		c-1.5-0.1-2.9-1.5-3-3c0.1,0,0.2,0,0.3,0c0.2,0,0.4-0.2,0.4-0.4c0-0.2-0.2-0.4-0.4-0.4c-0.1,0-0.2,0-0.3,0c-0.2-1.2,1.7-3.1,3-3
		c0,0.3-0.1,0.7,0.4,0.7c0.3,0,0.3-0.1,0.4-0.7c1.2-0.2,3.1,1.8,3,3c-0.3,0-0.7-0.1-0.7,0.4c0,0.2,0.1,0.3,0.2,0.4
		c0.1,0,0.3,0,0.5,0.1C11.3,9.8,10,11.3,8.4,11.4z"/>
	<path class="st1" d="M8,6.5C7.1,6.5,6.5,7.1,6.5,8c0,0.9,0.7,1.6,1.5,1.6c0.9,0,1.6-0.7,1.6-1.5C9.5,7.1,8.9,6.5,8,6.5z"/>
</g>
<g id="maknae" class="st0">
	<path class="st1" d="M13.6,8c-0.1-0.1-0.7-1.2-0.7-1.4c-0.6-2-2.3-3.4-4.4-3.6C8.2,3,8,2.8,8.1,2.6c0-0.2,0.1-0.5,0.1-0.7
		C8,1.7,7.8,1.5,7.6,1.4C7.2,1.9,7.2,2.4,7.3,3c0,0-0.1,0-0.1,0c0,0-0.1,0-0.1,0C4.9,3.5,3.5,4.9,3,7.1C2.9,7.4,2.8,7.6,2.6,7.7
		c-0.5,0.4-0.7,1-0.6,1.6c0.2,0.7,0.6,1.1,1.3,1.2c0.3,0.1,0.4,0.2,0.5,0.3c1,1.5,2.5,2.3,4.3,2.3c1.8,0,3.1-0.9,4.1-2.3
		c0.1-0.2,0.2-0.2,0.4-0.3C13.9,10.4,14.4,8.9,13.6,8z M12.4,9.8c-0.4,0-0.5,0.2-0.7,0.5c-0.9,1.4-2.2,2.1-3.9,2.1
		c-1.6-0.1-2.8-0.9-3.6-2.3C4.1,9.9,4,9.8,3.8,9.8c-0.6,0-0.9-0.3-0.9-0.7C2.8,8.7,3,8.3,3.5,8.1c0.1,0,0.2-0.2,0.2-0.3
		c0.2-2,1.5-3.5,3.4-3.9C7.4,3.8,7.7,3.8,8,3.8c2.3,0,4.1,1.7,4.3,4c0,0.2,0.1,0.3,0.2,0.3C13,8.3,13.2,8.6,13.2,9
		C13.1,9.4,12.8,9.8,12.4,9.8z"/>
	<path class="st1" d="M6.8,9.3C6.6,9.5,6.4,9.7,6.2,9.9c1,1,2.6,1,3.6,0C9.6,9.7,9.4,9.5,9.2,9.3C8.4,10,7.6,10,6.8,9.3z"/>
	<path class="st1" d="M6.7,8.1c0.3,0,0.4-0.2,0.4-0.4c0-0.2-0.2-0.4-0.4-0.4c-0.3,0-0.4,0.1-0.4,0.4C6.3,7.9,6.5,8.1,6.7,8.1z"/>
	<path class="st1" d="M9.3,8.1c0.2,0,0.4-0.2,0.4-0.4c0-0.2-0.2-0.4-0.4-0.4c-0.2,0-0.4,0.2-0.4,0.4C8.9,7.9,9.1,8.1,9.3,8.1z"/>
</g>
<path id="rapper" class="st4" d="M14.5,8.3c0-0.3,0-0.5,0-0.8l0-0.1c0-0.3,0-0.5-0.1-0.8c-0.3-1.5-1.1-2.6-2.6-3.1
	c-0.6-0.2-1.2-0.2-1.8-0.2C10,3.1,9.8,3,9.4,3C9.1,3,8.9,3.1,8.8,3.3c-0.1,0-0.2,0-0.3,0c-0.2,0-0.4,0-0.6,0C6.2,3.5,4.7,5,4.6,6.6
	c0,0.4-0.1,0.8-0.1,1.2l0,0.3c0,0.3,0,0.5,0,0.8V9l0,0C4.3,9,4.1,9.1,3.9,9.1C3.3,9.4,2.6,9.6,2,9.8c-0.2,0.1-0.4,0.2-0.4,0.4
	c-0.1,0.2,0,0.4,0.1,0.6C1.8,11,1.9,11,2,11.1c0.6,0.3,1.3,0.5,2.2,0.6c0.4,0.1,0.9,0.1,1.3,0.2c0.3,0,0.7,0.1,1,0.1
	c0.5,0.1,0.9,0.1,1.4,0.1c0.6,0,1.3-0.1,1.9-0.2c1.1-0.3,2.1-0.8,2.8-1.3c0.1-0.1,0.3-0.2,0.4-0.2c0.4-0.1,0.8-0.2,1.1-0.4
	c0.3-0.2,0.4-0.5,0.4-0.8C14.5,8.9,14.5,8.6,14.5,8.3z M12.9,6.8c0-0.9-0.2-1.6-0.7-2.2c0.8,0.5,1.3,1.4,1.4,2.4l0,1
	c0,0.4,0,0.8,0,1.2c-0.2,0.1-0.4,0.2-0.7,0.3l0-1.4C12.9,7.7,12.9,7.3,12.9,6.8z M4.7,9.9c0.3,0.2,0.5,0.3,0.7,0.4
	c0.6,0.2,1.2,0.3,1.8,0.4c1,0.1,1.9,0.2,2.8,0.1c0.1,0,0.1,0,0.2,0c-0.9,0.3-1.9,0.5-2.9,0.4c-0.5,0-1-0.1-1.5-0.2l-0.6-0.1
	c-0.9-0.1-1.6-0.3-2.3-0.5L4.7,9.9C4.7,9.9,4.7,9.9,4.7,9.9z M7,9.7c0-0.4,0-0.8,0-1.1V8.5h0l0-0.8C7,7.3,7,7,7,6.6
	c0.1-1,0.5-1.7,1.4-2.1C8.7,4.4,9,4.3,9.3,4.2c0.2,0,0.4,0,0.5,0c0.3,0.1,0.6,0.2,0.9,0.4C11.5,5,12,5.7,12,6.7c0,0.7,0,1.4,0,2
	c0,0.3,0,0.6,0,0.9C10.3,9.9,8.7,9.9,7,9.7z M6.8,4.7C6.3,5.3,6.1,6.1,6.1,6.9v2.7C5.8,9.5,5.6,9.4,5.4,9.3l0-0.6
	c0-0.6,0-1.2,0.1-1.8C5.5,5.9,6.1,5.1,6.8,4.7C6.8,4.7,6.8,4.7,6.8,4.7z"/>
<g id="main" class="st0">
	<g class="st2">
		<g>
			<path class="st5" d="M11.1,3.3c0,0,0,0.1,0,0.1C11,3.4,11,3.5,11,3.6C10.5,4,10.1,4.4,9.7,4.7c0,0,0,0.1,0,0.1
				C9.8,5.4,9.9,6,10,6.6c0,0.2,0,0.2-0.2,0.3c0,0-0.1,0-0.1,0c0,0-0.1,0-0.1-0.1C9.1,6.6,8.6,6.3,8.1,6C8,6,8,6,7.9,6
				C7.4,6.3,6.8,6.6,6.3,6.9c0,0-0.1,0-0.1,0C6,6.8,6,6.8,6,6.6C6.1,6,6.2,5.4,6.3,4.9c0,0,0-0.1,0-0.1C5.9,4.4,5.5,4,5,3.6
				C5,3.5,5,3.4,4.9,3.4c0,0,0-0.1,0-0.1c0-0.1,0.1-0.2,0.3-0.2c0,0,0,0,0,0C5.8,3,6.3,2.9,6.9,2.8c0,0,0.1,0,0.1-0.1
				c0.3-0.5,0.5-1,0.8-1.6C7.8,1.1,7.9,1.1,8,1C8,1,8,1,8,1c0.1,0,0.1,0.1,0.2,0.2c0.3,0.5,0.5,1,0.8,1.6c0,0,0,0.1,0.1,0.1
				c0.1,0,0.1,0,0.2,0c0.5,0.1,1,0.1,1.5,0.2C10.9,3.1,11,3.2,11.1,3.3z"/>
		</g>
	</g>
</g>
<g id="lead">
	<g>
		<path class="st6" d="M13.7,10.7C13.7,10.7,13.7,10.7,13.7,10.7c0,0.1-0.1,0.2-0.1,0.2c-0.3,0.3-0.5,0.5-0.8,0.8c0,0,0,0,0,0.1
			c0.1,0.4,0.1,0.7,0.2,1.1c0,0.1,0,0.2-0.1,0.2c0,0,0,0-0.1,0c0,0,0,0-0.1,0c-0.3-0.2-0.7-0.3-1-0.5c0,0-0.1,0-0.1,0
			c-0.4,0.2-0.7,0.4-1.1,0.6c0,0,0,0-0.1,0c-0.1-0.1-0.1-0.1-0.1-0.2c0.1-0.4,0.1-0.8,0.2-1.1c0,0,0,0,0-0.1
			c-0.3-0.3-0.5-0.5-0.8-0.8c0,0-0.1-0.1-0.1-0.1c0,0,0,0,0-0.1c0-0.1,0.1-0.1,0.2-0.1c0,0,0,0,0,0c0.4-0.1,0.7-0.1,1.1-0.2
			c0,0,0,0,0.1,0c0.2-0.3,0.3-0.7,0.5-1c0-0.1,0.1-0.1,0.1-0.1c0,0,0,0,0.1,0c0.1,0,0.1,0.1,0.1,0.1c0.2,0.3,0.3,0.7,0.5,1
			c0,0,0,0,0.1,0c0,0,0.1,0,0.1,0c0.3,0,0.6,0.1,1,0.1C13.6,10.6,13.7,10.6,13.7,10.7z"/>
	</g>
</g>
</svg>
