<?xml version="1.0" encoding="utf-8"?>
<!-- Generator: Adobe Illustrator 22.0.1, SVG Export Plug-In . SVG Version: 6.00 Build 0)  -->
<svg version="1.1" id="Layer_1" xmlns="http://www.w3.org/2000/svg" xmlns:xlink="http://www.w3.org/1999/xlink" x="0px" y="0px"
	 viewBox="0 0 16 16" style="enable-background:new 0 0 16 16;" xml:space="preserve">
<style type="text/css">
	.st0{display:none;}
	.st1{display:inline;fill:#FFFFFF;}
	.st2{display:inline;}
	.st3{fill:#FFFFFF;}
	.st4{display:none;fill:#FFFFFF;}
</style>
<circle cx="8" cy="8" r="8"/>
<g id="leader" class="st0">
	<path class="st1" d="M13.4,5.8c-0.2-0.4-0.7-0.6-1.1-0.4c-0.4,0.2-0.6,0.7-0.3,1.1c0,0.1,0.1,0.1,0.1,0.2c-0.7,0.6-1.4,1.1-2.1,1.7
		C9.5,7.5,8.9,6.6,8.4,5.7c0.1-0.1,0.2-0.2,0.2-0.3C8.9,5,8.8,4.5,8.2,4.1c-0.1,0-0.2,0-0.4,0C7.1,4.5,7,5.1,7.6,5.7
		C7.1,6.6,6.5,7.5,6,8.4c-0.7-0.6-1.4-1.2-2-1.7C4,6.5,4.1,6.3,4.1,6.2c0-0.3-0.2-0.7-0.5-0.8c-0.3-0.1-0.7,0-0.9,0.3
		C2.6,5.8,2.5,5.8,2.5,5.9c0,0.1,0,0.3,0,0.4C2.7,6.7,2.9,7,3.4,6.9c0.1,0.7,0.2,1.3,0.2,2c0.1,0.7,0.2,1.4,0.3,2.1
		c0,0.1,0.2,0.2,0.3,0.3c0.7,0.2,1.4,0.4,2.1,0.4c1.7,0.2,3.3,0.1,4.9-0.3c0.8-0.2,0.8-0.2,0.9-1c0.1-1.1,0.3-2.2,0.4-3.3
		c0-0.2,0.1-0.3,0.3-0.3c0.4,0,0.5-0.3,0.7-0.6c0-0.1,0-0.2,0-0.3C13.5,5.9,13.4,5.9,13.4,5.8z"/>
</g>
<g id="star" class="st0">
	<g class="st2">
		<g>
			<path class="st3" d="M8.8,2.3C8.8,2.3,8.8,2.4,8.8,2.3C8.8,2.4,8.8,2.4,8.8,2.3C8.7,2.5,8.6,2.6,8.5,2.7c0,0,0,0,0,0
				c0,0.1,0.1,0.3,0.1,0.4c0,0,0,0.1,0,0.1c0,0,0,0,0,0c0,0,0,0,0,0C8.3,3.2,8.2,3.1,8,3.1c0,0,0,0,0,0C7.8,3.1,7.7,3.2,7.6,3.3
				c0,0,0,0,0,0c0,0-0.1,0,0-0.1c0-0.2,0.1-0.3,0.1-0.5c0,0,0,0,0,0C7.4,2.6,7.3,2.5,7.2,2.4c0,0,0,0,0,0c0,0,0,0,0,0c0,0,0,0,0.1,0
				c0,0,0,0,0,0c0.1,0,0.3,0,0.4-0.1c0,0,0,0,0,0c0.1-0.1,0.1-0.3,0.2-0.4c0,0,0,0,0,0c0,0,0,0,0,0c0,0,0,0,0,0
				c0.1,0.1,0.1,0.3,0.2,0.4c0,0,0,0,0,0c0,0,0,0,0.1,0C8.5,2.3,8.6,2.3,8.8,2.3C8.8,2.3,8.8,2.3,8.8,2.3z"/>
		</g>
	</g>
</g>
<g id="star_1_" class="st0">
	<g class="st2">
		<g>
			<path class="st3" d="M6.4,3.1C6.4,3.1,6.4,3.1,6.4,3.1C6.4,3.2,6.4,3.2,6.4,3.1C6.3,3.3,6.1,3.4,6,3.5c0,0,0,0,0,0
				c0,0.1,0.1,0.3,0.1,0.4c0,0,0,0.1,0,0.1c0,0,0,0,0,0c0,0,0,0,0,0C5.9,4,5.7,3.9,5.6,3.8c0,0,0,0,0,0C5.4,3.9,5.3,4,5.1,4.1
				c0,0,0,0,0,0c0,0-0.1,0,0-0.1c0-0.2,0.1-0.3,0.1-0.5c0,0,0,0,0,0C5,3.4,4.9,3.3,4.8,3.2c0,0,0,0,0,0c0,0,0,0,0,0c0,0,0,0,0.1,0
				c0,0,0,0,0,0C5,3,5.1,3,5.3,3c0,0,0,0,0,0c0.1-0.1,0.1-0.3,0.2-0.4c0,0,0,0,0,0c0,0,0,0,0,0c0,0,0,0,0,0C5.7,2.7,5.8,2.8,5.8,3
				c0,0,0,0,0,0c0,0,0,0,0.1,0C6.1,3,6.2,3,6.4,3.1C6.4,3.1,6.4,3.1,6.4,3.1z"/>
		</g>
	</g>
</g>
<g id="star_2_" class="st0">
	<g class="st2">
		<g>
			<path class="st3" d="M11,3.1C11,3.1,11,3.1,11,3.1C11,3.2,11,3.2,11,3.1c-0.1,0.2-0.2,0.3-0.4,0.4c0,0,0,0,0,0
				c0,0.1,0.1,0.3,0.1,0.4c0,0,0,0.1,0,0.1c0,0,0,0,0,0c0,0,0,0,0,0c-0.1-0.1-0.3-0.1-0.4-0.2c0,0,0,0,0,0C10.1,3.9,9.9,4,9.8,4.1
				c0,0,0,0,0,0c0,0-0.1,0,0-0.1c0-0.2,0.1-0.3,0.1-0.5c0,0,0,0,0,0C9.7,3.4,9.6,3.3,9.5,3.2c0,0,0,0,0,0c0,0,0,0,0,0c0,0,0,0,0.1,0
				c0,0,0,0,0,0C9.6,3,9.8,3,9.9,3c0,0,0,0,0,0c0.1-0.1,0.1-0.3,0.2-0.4c0,0,0,0,0,0c0,0,0,0,0,0c0,0,0,0,0,0
				c0.1,0.1,0.1,0.3,0.2,0.4c0,0,0,0,0,0c0,0,0,0,0.1,0C10.7,3,10.8,3,11,3.1C11,3.1,11,3.1,11,3.1z"/>
		</g>
	</g>
</g>
<g id="vocalist" class="st0">
	<path class="st1" d="M9.4,10.7c0-0.4,0-0.8,0-1.2c0-0.3,0.1-0.5,0.4-0.6c0.1,0,0.2-0.1,0.3-0.1c-0.5-1-0.9-1.9-1.4-2.9
		C8.3,6.1,7.8,6.4,7.4,6.6c-1.7,1-3.3,2-5,3C2.1,9.8,2,10,2.1,10.3c0.1,0.1,0.1,0.3,0.2,0.4c0.3,0.7,0.4,0.8,1.2,0.5
		c1.1-0.4,2.3-0.8,3.5-1.3c0,0.3,0,0.5,0,0.7c0,0.7,0,0.7,0.7,0.9c0,1.5,0,3,0,4.5c0.3,0,0.5,0,0.8,0c0.1,0,0.2,0,0.4,0
		c0-1.5,0-3,0-4.5C9.4,11.4,9.4,11.3,9.4,10.7z"/>
	<path class="st1" d="M12.4,4.1c-0.9-0.4-2-0.1-2.7,0.6C9.6,4.8,9.5,5,9.6,5.2c0.5,1.1,1.1,2.2,1.6,3.3c0.1,0.2,0.2,0.3,0.4,0.2
		c1.3-0.1,2.3-1.1,2.3-2.4C13.9,5.3,13.3,4.4,12.4,4.1z"/>
</g>
<g id="dancer" class="st0">
	<g class="st2">
		<g>
			<path class="st3" d="M5.9,1.5C6,1.7,6.1,1.8,6.2,2c0.2,1.1,0.4,2.2,0.5,3.3c0,0.1,0,0.2,0.1,0.3c0.4,0,0.8,0,1.2,0
				c0.2,0,0.4,0,0.6,0.1c0.5,0.2,1,0.4,1.6,0.7c0.2,0.1,0.3,0.3,0.3,0.5c-0.1,0.5-0.1,1.1-0.2,1.6c0,0.3-0.1,0.4-0.4,0.4
				c-0.3,0-0.4-0.2-0.3-0.5c0-0.4,0-0.7,0.1-1.1c0.1-0.3,0-0.5-0.3-0.6C9,6.7,8.7,6.5,8.3,6.4C8.3,7,8.3,7.5,8.5,8
				c0,0.1,0.1,0.1,0.1,0.1c0.8,0.5,1.3,1.4,1.9,2.2c-0.2,0.1-0.3,0.2-0.5,0.4c0.6,1,1.1,2,1.7,2.9c0,0.1,0,0.2,0,0.3
				c-0.4,0.5-0.8,0.5-1.1-0.1c-0.5-0.8-1-1.7-1.4-2.5c-0.2-0.3-0.3-0.3-0.6-0.3c-0.7,0.2-1.5,0.2-2.3,0c-0.3-0.1-0.3,0-0.3,0.3
				C6,12.2,6,13,6,13.7c0,0.4-0.1,0.6-0.4,0.8c-0.1,0-0.2,0-0.3,0c-0.3-0.2-0.4-0.4-0.4-0.7c0-0.8-0.1-1.7-0.1-2.5
				c0-0.2,0-0.5,0.1-0.8c0,0-0.1-0.1-0.2-0.2C5.4,9.9,6,9.4,6.5,9.1c-0.1-0.7-0.3-1.3-0.4-2c-0.1-0.4,0-0.7,0-1.1
				C5.9,4.7,5.7,3.4,5.5,2.1c0-0.3,0-0.5,0.2-0.6C5.7,1.5,5.8,1.5,5.9,1.5z"/>
			<path class="st3" d="M7.8,3.6c0.5,0,0.9,0.4,0.9,0.9c0,0.5-0.4,0.9-0.9,0.9c-0.5,0-0.9-0.4-0.9-1C6.9,3.9,7.3,3.6,7.8,3.6z"/>
		</g>
	</g>
</g>
<g id="visual">
	<path class="st3" d="M9.6,8.7c1.4-0.6,2.2-2.1,2.1-3.6c-0.2-1.4-1.2-2.6-2.5-3C8.9,2.1,8.7,2,8.5,2C8.3,2,8.1,2,7.9,2
		C7.8,2,7.7,2,7.6,2c-2.4,0.4-3.7,3-2.5,5.1C5.5,7.9,6,8.4,6.7,8.7c0.4,0.2,0.6,0.4,0.6,0.9c0,0.6,0,1.1,0,1.7
		c0,0.3-0.1,0.5-0.2,0.8c-0.4,0.7-0.1,1.6,0.7,1.9C7.9,14,8,14,8.1,14c0,0,0.1,0,0.1,0c0,0,0.1,0,0.1,0c0.9-0.1,1.4-1.1,1-1.9
		c-0.1-0.3-0.2-0.5-0.2-0.8c0-0.6,0-1.1,0-1.7C9,9.1,9.2,8.9,9.6,8.7z M8.7,11.7c0,0.2,0.1,0.3,0.1,0.5c0.1,0.2,0.2,0.5,0.1,0.8
		c-0.1,0.4-0.6,0.7-1,0.5c-0.4-0.1-0.6-0.6-0.5-1c0-0.1,0.1-0.2,0.1-0.2c0.1-0.2,0.1-0.3,0.1-0.5c0-0.9,0-1.7,0-2.6
		c0-0.3-0.1-0.5-0.4-0.6C7.2,8.3,7,8.3,6.9,8.2c-1.1-0.5-1.8-1.7-1.7-3c0.2-1.3,1.2-2.3,2.4-2.6c0.2,0,0.3,0,0.5,0
		c1.5,0,2.8,1.2,3,2.7c0.1,1.3-0.6,2.4-1.7,3C9.2,8.3,9.1,8.4,8.9,8.5C8.7,8.6,8.7,8.8,8.7,9C8.7,9.9,8.6,10.8,8.7,11.7z"/>
	<path class="st3" d="M4.7,8.5C4.5,9.2,4,9.7,3.3,9.9c0.7,0.2,1.2,0.7,1.4,1.4c0.3-0.7,0.7-1.2,1.5-1.4C5.4,9.7,4.9,9.2,4.7,8.5z
		 M4.7,10.6C4.6,10.3,4.4,10,4,9.9c0.3-0.1,0.6-0.3,0.7-0.7C4.8,9.6,5,9.8,5.4,9.9C5.1,10,4.8,10.3,4.7,10.6z"/>
	<path class="st3" d="M4.2,7.2c-0.5-0.1-0.8-0.5-1-1c-0.2,0.6-0.5,0.9-1,1c0.5,0.1,0.8,0.5,1,1C3.4,7.7,3.7,7.3,4.2,7.2z"/>
	<path class="st3" d="M11.7,10c-0.2,0.8-0.7,1.2-1.4,1.5c0.7,0.2,1.2,0.7,1.4,1.4c0.2-0.7,0.8-1.3,1.5-1.4
		C12.4,11.3,11.9,10.8,11.7,10z M11.7,12c-0.1-0.3-0.3-0.5-0.5-0.5c0.3-0.1,0.5-0.3,0.6-0.6c0.1,0.3,0.3,0.5,0.6,0.6
		C12,11.6,11.8,11.8,11.7,12z"/>
	<path class="st3" d="M10.7,5.5C10.7,4.1,9.6,3,8.2,3C6.8,3,5.7,4.1,5.7,5.5C5.7,6.9,6.8,8,8.2,8C9.6,8,10.7,6.9,10.7,5.5z M8.2,7.5
		c-1.1,0-2-0.9-2-2c0-1.1,0.9-2,2-2c1.1,0,2,0.9,2,2C10.2,6.6,9.3,7.5,8.2,7.5z"/>
	<path class="st3" d="M9.6,5.1C9.6,5.1,9.6,5.1,9.6,5.1c-0.7,0.6-1.3,1.2-2,1.8C7.8,7,8,7,8.2,7c0,0,0.1,0,0.1,0
		c0.4-0.4,0.9-0.8,1.3-1.2c0,0,0.1-0.1,0.1-0.1C9.7,5.4,9.6,5.3,9.6,5.1z"/>
	<path class="st3" d="M9.2,4.5C8.5,5.1,7.8,5.8,7.1,6.4c0.1,0.1,0.2,0.2,0.2,0.3C8,6,8.7,5.4,9.4,4.8C9.4,4.7,9.3,4.6,9.2,4.5z"/>
</g>
<g id="center" class="st0">
	<path class="st1" d="M12.2,7.6c-0.4-2.2-1.6-3.5-3.9-3.9c0-0.3,0.1-0.6-0.2-0.8C8.1,3,7.9,3,7.8,3C7.6,3.2,7.6,3.5,7.6,3.8
		C5.4,4.1,4.1,5.4,3.8,7.6C3.5,7.6,3.2,7.5,3,7.8c0,0.1,0,0.2,0,0.3c0.2,0.3,0.5,0.2,0.8,0.2c0.4,2.2,1.6,3.5,3.9,3.9
		c0,0.3-0.1,0.6,0.2,0.8c0.1,0,0.2,0,0.3,0c0.3-0.2,0.2-0.5,0.2-0.8c1-0.1,1.9-0.5,2.6-1.2c0.7-0.7,1.1-1.6,1.2-2.6
		c0.3,0,0.6,0.1,0.8-0.2c0-0.1,0-0.2,0-0.3C12.8,7.6,12.5,7.6,12.2,7.6z M8.4,11.4c-0.1-0.6-0.1-0.7-0.4-0.7c-0.5,0-0.4,0.4-0.4,0.7
		c-1.5-0.1-2.9-1.5-3-3c0.1,0,0.2,0,0.3,0c0.2,0,0.4-0.2,0.4-0.4c0-0.2-0.2-0.4-0.4-0.4c-0.1,0-0.2,0-0.3,0c-0.2-1.2,1.7-3.1,3-3
		c0,0.3-0.1,0.7,0.4,0.7c0.3,0,0.3-0.1,0.4-0.7c1.2-0.2,3.1,1.8,3,3c-0.3,0-0.7-0.1-0.7,0.4c0,0.2,0.1,0.3,0.2,0.4
		c0.1,0,0.3,0,0.5,0.1C11.3,9.8,10,11.3,8.4,11.4z"/>
	<path class="st1" d="M8,6.5C7.1,6.5,6.5,7.1,6.5,8c0,0.9,0.7,1.6,1.5,1.6c0.9,0,1.6-0.7,1.6-1.5C9.5,7.1,8.9,6.5,8,6.5z"/>
</g>
<g id="maknae" class="st0">
	<path class="st1" d="M12.7,7.8c-0.1-0.1-0.6-1-0.6-1.1c-0.5-1.7-1.9-2.8-3.7-3C8.1,3.7,8,3.6,8,3.4c0-0.2,0.1-0.4,0.1-0.6
		C8,2.6,7.8,2.5,7.7,2.4C7.3,2.8,7.3,3.2,7.4,3.7c0,0-0.1,0-0.1,0c0,0,0,0-0.1,0c-1.9,0.4-3,1.6-3.4,3.4C3.8,7.4,3.7,7.5,3.5,7.7
		C3.1,8,2.9,8.5,3.1,9c0.1,0.5,0.5,0.9,1,1c0.2,0,0.3,0.1,0.4,0.3c0.9,1.2,2,1.9,3.6,1.9c1.5,0,2.6-0.7,3.4-1.9
		c0.1-0.1,0.2-0.2,0.4-0.2C12.9,9.9,13.3,8.6,12.7,7.8z M11.7,9.4c-0.3,0-0.5,0.2-0.6,0.4c-0.7,1.2-1.8,1.8-3.2,1.7
		c-1.3-0.1-2.3-0.7-3-1.9C4.8,9.5,4.7,9.4,4.5,9.4C4,9.4,3.8,9.1,3.7,8.8C3.7,8.4,3.9,8.2,4.3,8c0.1,0,0.1-0.2,0.2-0.2
		c0.2-1.7,1.2-2.9,2.9-3.3C7.5,4.4,7.8,4.4,8,4.4c1.9,0,3.4,1.4,3.6,3.4c0,0.2,0,0.2,0.2,0.3c0.4,0.1,0.5,0.4,0.5,0.7
		C12.3,9.1,12,9.4,11.7,9.4z"/>
	<path class="st1" d="M7,9C6.8,9.2,6.7,9.3,6.5,9.5c0.8,0.8,2.2,0.8,3,0C9.3,9.3,9.2,9.2,9,9C8.3,9.5,7.7,9.5,7,9z"/>
	<path class="st1" d="M6.9,7.9c0.2,0,0.4-0.1,0.4-0.3c0-0.2-0.1-0.4-0.3-0.3c-0.2,0-0.3,0.1-0.3,0.3C6.6,7.8,6.7,7.9,6.9,7.9z"/>
	<path class="st1" d="M9.1,7.9c0.2,0,0.4-0.2,0.3-0.4c0-0.2-0.1-0.3-0.3-0.3c-0.2,0-0.4,0.1-0.4,0.3C8.7,7.8,8.9,7.9,9.1,7.9z"/>
</g>
<path id="rapper" class="st4" d="M13.3,8.1c0-0.2,0-0.4,0-0.6l0-0.1c0-0.2,0-0.4,0-0.6c-0.2-1.2-0.9-2.1-2.1-2.5
	c-0.5-0.2-1-0.2-1.4-0.2C9.6,3.9,9.4,3.9,9.2,3.9c-0.2,0-0.4,0.1-0.5,0.2c-0.1,0-0.2,0-0.3,0c-0.2,0-0.3,0-0.5,0
	C6.5,4.3,5.4,5.5,5.2,6.8c0,0.3,0,0.6,0,1l0,0.2c0,0.2,0,0.4,0,0.6v0.1l0,0C5,8.7,4.8,8.8,4.7,8.8C4.2,9,3.7,9.2,3.2,9.4
	C3,9.4,2.9,9.6,2.8,9.7c0,0.2,0,0.3,0.1,0.5c0.1,0.1,0.1,0.1,0.3,0.2c0.5,0.2,1.1,0.4,1.8,0.5C5.3,11,5.6,11,6,11.1
	c0.3,0,0.5,0.1,0.8,0.1c0.4,0.1,0.7,0.1,1.1,0.1c0.5,0,1-0.1,1.5-0.2c0.9-0.2,1.7-0.7,2.2-1c0.1-0.1,0.2-0.1,0.4-0.2
	c0.3-0.1,0.6-0.2,0.9-0.4c0.2-0.2,0.3-0.4,0.3-0.7C13.3,8.6,13.3,8.4,13.3,8.1z M12,7c0-0.7-0.2-1.3-0.6-1.8
	c0.7,0.4,1.1,1.1,1.1,1.9l0,0.8c0,0.3,0,0.7,0,1C12.4,9,12.2,9.1,12,9.2L12,8C12,7.7,12,7.3,12,7z M5.4,9.4c0.2,0.2,0.4,0.3,0.6,0.3
	c0.5,0.2,1,0.3,1.5,0.3c0.8,0.1,1.6,0.1,2.3,0.1c0,0,0.1,0,0.1,0c-0.8,0.3-1.5,0.4-2.3,0.3c-0.4,0-0.8-0.1-1.2-0.2l-0.5-0.1
	C5.1,10.2,4.5,10,4,9.9L5.4,9.4C5.4,9.4,5.4,9.4,5.4,9.4z M7.2,9.3c0-0.3,0-0.6,0-0.9V8.3h0l0-0.6c0-0.3,0-0.6,0-0.9
	c0-0.8,0.4-1.3,1.1-1.7C8.6,5,8.8,4.9,9,4.8c0.1,0,0.3,0,0.4,0C9.7,4.9,9.9,5,10.1,5.1c0.7,0.4,1.1,1,1.1,1.8c0,0.5,0,1.1,0,1.6
	c0,0.3,0,0.5,0,0.8C9.9,9.5,8.5,9.5,7.2,9.3z M7,5.3C6.7,5.8,6.5,6.3,6.5,7v2.1C6.2,9.1,6.1,9,5.9,9l0-0.5c0-0.5,0-1,0.1-1.5
	C6,6.3,6.5,5.6,7,5.3C7.1,5.2,7,5.2,7,5.3z"/>
</svg>
