<?xml version="1.0" encoding="utf-8"?>
<!-- Generator: Adobe Illustrator 22.1.0, SVG Export Plug-In . SVG Version: 6.00 Build 0)  -->
<svg version="1.1" id="Layer_1" xmlns="http://www.w3.org/2000/svg" xmlns:xlink="http://www.w3.org/1999/xlink" x="0px" y="0px"
	 viewBox="0 0 16 16" style="enable-background:new 0 0 16 16;" xml:space="preserve">
<style type="text/css">
	.st0{fill:#FFFFFF;}
	.st1{fill:#FFD700;}
</style>
<circle cx="8" cy="8" r="8"/>
<g id="vocalist">
	<path class="st0" d="M9.4,10.7c0-0.4,0-0.8,0-1.2c0-0.3,0.1-0.5,0.4-0.6c0.1,0,0.2-0.1,0.3-0.1c-0.5-1-0.9-1.9-1.4-2.9
		C8.3,6.1,7.8,6.4,7.4,6.6c-1.7,1-3.3,2-5,3C2.1,9.8,2,10,2.1,10.3c0.1,0.1,0.1,0.3,0.2,0.4c0.3,0.7,0.4,0.8,1.2,0.5
		c1.1-0.4,2.3-0.8,3.5-1.3c0,0.3,0,0.5,0,0.7c0,0.7,0,0.7,0.7,0.9c0,1.5,0,3,0,4.5c0.3,0,0.5,0,0.8,0c0.1,0,0.2,0,0.4,0
		c0-1.5,0-3,0-4.5C9.4,11.4,9.4,11.3,9.4,10.7z"/>
	<path class="st0" d="M12.4,4.1c-0.9-0.4-2-0.1-2.7,0.6C9.6,4.8,9.5,5,9.6,5.2c0.5,1.1,1.1,2.2,1.6,3.3c0.1,0.2,0.2,0.3,0.4,0.2
		c1.3-0.1,2.3-1.1,2.3-2.4C13.9,5.3,13.3,4.4,12.4,4.1z"/>
</g>
<g id="main">
	<g>
		<g>
			<path class="st1" d="M11.1,3.3c0,0,0,0.1,0,0.1C11,3.4,11,3.5,11,3.6C10.5,4,10.1,4.4,9.7,4.7c0,0,0,0.1,0,0.1
				C9.8,5.4,9.9,6,10,6.6c0,0.2,0,0.2-0.2,0.3c0,0-0.1,0-0.1,0c0,0-0.1,0-0.1-0.1C9.1,6.6,8.6,6.3,8.1,6C8,6,8,6,7.9,6
				C7.4,6.3,6.8,6.6,6.3,6.9c0,0-0.1,0-0.1,0C6,6.8,6,6.8,6,6.6C6.1,6,6.2,5.4,6.3,4.9c0,0,0-0.1,0-0.1C5.9,4.4,5.5,4,5,3.6
				C5,3.5,5,3.4,4.9,3.4c0,0,0-0.1,0-0.1c0-0.1,0.1-0.2,0.3-0.2c0,0,0,0,0,0C5.8,3,6.3,2.9,6.9,2.8c0,0,0.1,0,0.1-0.1
				c0.3-0.5,0.5-1,0.8-1.6C7.8,1.1,7.9,1.1,8,1C8,1,8,1,8,1c0.1,0,0.1,0.1,0.2,0.2c0.3,0.5,0.5,1,0.8,1.6c0,0,0,0.1,0.1,0.1
				c0.1,0,0.1,0,0.2,0c0.5,0.1,1,0.1,1.5,0.2C10.9,3.1,11,3.2,11.1,3.3z"/>
		</g>
	</g>
</g>
</svg>
