<?xml version="1.0" encoding="utf-8"?>
<!-- Generator: Adobe Illustrator 22.1.0, SVG Export Plug-In . SVG Version: 6.00 Build 0)  -->
<svg version="1.1" id="Layer_1" xmlns="http://www.w3.org/2000/svg" xmlns:xlink="http://www.w3.org/1999/xlink" x="0px" y="0px"
	 viewBox="0 0 16 16" style="enable-background:new 0 0 16 16;" xml:space="preserve">
<style type="text/css">
	.st0{fill:#D14949;}
</style>
<path class="st0" d="M8,0C3.6,0,0,3.6,0,8s3.6,8,8,8s8-3.6,8-8S12.4,0,8,0z M11.6,10.5l-1.2,1.2c-0.2,0.2-0.5,0.2-0.7,0l-1.3-1.3
	c-0.2-0.2-0.5-0.2-0.7,0l-1.3,1.3c-0.2,0.2-0.5,0.2-0.7,0l-1.2-1.2c-0.2-0.2-0.2-0.5,0-0.7l1.3-1.3c0.2-0.2,0.2-0.5,0-0.7L4.3,6.4
	c-0.2-0.2-0.2-0.5,0-0.7l1.2-1.2c0.2-0.2,0.5-0.2,0.7,0l1.3,1.3C7.8,6,8.1,6,8.3,5.8l1.3-1.3c0.2-0.2,0.5-0.2,0.7,0l1.2,1.2
	c0.2,0.2,0.2,0.5,0,0.7l-1.3,1.3c-0.2,0.2-0.2,0.5,0,0.7l1.3,1.3C11.8,10,11.8,10.3,11.6,10.5z"/>
</svg>
