<?xml version="1.0" encoding="utf-8"?>
<!-- Generator: Adobe Illustrator 22.1.0, SVG Export Plug-In . SVG Version: 6.00 Build 0)  -->
<svg version="1.1" id="Layer_1" xmlns="http://www.w3.org/2000/svg" xmlns:xlink="http://www.w3.org/1999/xlink" x="0px" y="0px"
	 viewBox="0 0 105 105" style="enable-background:new 0 0 105 105;" xml:space="preserve">
<style type="text/css">
	.st0{fill:#EBEBF2;}
	.st1{fill:#B5B5BA;}
</style>
<rect class="st0" width="105" height="105"/>
<path class="st1" d="M81.8,42.8h-4.6C77.2,29.1,66.1,18,52.5,18c-13.6,0-24.8,11.1-24.8,24.8h-4.6c-3.3,0-5.9,2.7-5.9,5.9v34
	c0,3.3,2.7,5.9,5.9,5.9h58.6c3.3,0,5.9-2.7,5.9-5.9v-34C87.8,45.4,85.1,42.8,81.8,42.8z M52.5,30c7,0,12.8,5.7,12.8,12.8H39.8
	C39.8,35.7,45.5,30,52.5,30z"/>
</svg>
