<?xml version="1.0" encoding="utf-8"?>
<!-- Generator: Adobe Illustrator 22.1.0, SVG Export Plug-In . SVG Version: 6.00 Build 0)  -->
<svg version="1.1" id="Layer_1" xmlns="http://www.w3.org/2000/svg" xmlns:xlink="http://www.w3.org/1999/xlink" x="0px" y="0px"
	 viewBox="0 0 16 16" style="enable-background:new 0 0 16 16;" xml:space="preserve">
<style type="text/css">
	.st0{fill:#CBCBCB;}
	.st1{fill:#F2000C;}
	.st1:hover{fill:gold;}
</style>
<g>
	<circle class="st0" cx="8" cy="8" r="8"/>
	<path class="st1" d="M5.6,3.9c0.8,0,1.5,0.3,2.1,0.8c0.4,0.4,0.4,0.4,0.9,0c1-1,2.6-1.1,3.8-0.3c1.5,1,1.7,3.2,0.5,4.5
		c-1.4,1.5-2.9,2.9-4.3,4.3c-0.3,0.3-0.5,0.3-0.8,0c-1.4-1.4-2.8-2.8-4.2-4.2C2.7,8.1,2.4,6.8,2.9,5.7C3.3,4.6,4.4,3.9,5.6,3.9z"/>
</g>
</svg>
