<?xml version="1.0" encoding="utf-8"?>
<!-- Generator: Adobe Illustrator 22.1.0, SVG Export Plug-In . SVG Version: 6.00 Build 0)  -->
<svg version="1.1" id="Layer_1" xmlns="http://www.w3.org/2000/svg" xmlns:xlink="http://www.w3.org/1999/xlink" x="0px" y="0px"
	 viewBox="0 0 16 16" style="enable-background:new 0 0 16 16;" xml:space="preserve">
<style type="text/css">
	.st0{fill:#FFFFFF;}
</style>
<circle cx="8" cy="8" r="8"/>
<g id="vocalist">
	<path class="st0" d="M9.4,10.7c0-0.4,0-0.8,0-1.2c0-0.3,0.1-0.5,0.4-0.6c0.1,0,0.2-0.1,0.3-0.1c-0.5-1-0.9-1.9-1.4-2.9
		C8.3,6.1,7.8,6.4,7.4,6.6c-1.7,1-3.3,2-5,3C2.1,9.8,2,10,2.1,10.3c0.1,0.1,0.1,0.3,0.2,0.4c0.3,0.7,0.4,0.8,1.2,0.5
		c1.1-0.4,2.3-0.8,3.5-1.3c0,0.3,0,0.5,0,0.7c0,0.7,0,0.7,0.7,0.9c0,1.5,0,3,0,4.5c0.3,0,0.5,0,0.8,0c0.1,0,0.2,0,0.4,0
		c0-1.5,0-3,0-4.5C9.4,11.4,9.4,11.3,9.4,10.7z"/>
	<path class="st0" d="M12.4,4.1c-0.9-0.4-2-0.1-2.7,0.6C9.6,4.8,9.5,5,9.6,5.2c0.5,1.1,1.1,2.2,1.6,3.3c0.1,0.2,0.2,0.3,0.4,0.2
		c1.3-0.1,2.3-1.1,2.3-2.4C13.9,5.3,13.3,4.4,12.4,4.1z"/>
</g>
</svg>
