<?xml version="1.0" encoding="utf-8"?>
<!-- Generator: Adobe Illustrator 22.0.1, SVG Export Plug-In . SVG Version: 6.00 Build 0)  -->
<svg version="1.1" id="Layer_1" xmlns="http://www.w3.org/2000/svg" xmlns:xlink="http://www.w3.org/1999/xlink" x="0px" y="0px"
	 viewBox="0 0 2100 462" style="enable-background:new 0 0 2100 462;" xml:space="preserve">
<style type="text/css">
	.st0{opacity:0.4;fill:#FFE400;enable-background:new    ;}
	.st1{opacity:0.4;fill:#FF8E2A;enable-background:new    ;}
	.st2{opacity:0.4;fill:#7FB817;enable-background:new    ;}
	.st3{opacity:0.4;fill:#15AA98;enable-background:new    ;}
	.st4{opacity:0.4;fill:#39BADD;enable-background:new    ;}
	.st5{opacity:0.4;fill:#B291EF;enable-background:new    ;}
	.st6{opacity:0.4;fill:#1B66FA;enable-background:new    ;}
	.st7{opacity:0.4;fill:#7B68EE;enable-background:new    ;}
	.st8{opacity:0.4;fill:#FC6BE9;enable-background:new    ;}
	.st9{opacity:0.4;fill:#E4358A;enable-background:new    ;}
	.st10{opacity:0.4;fill:#D01131;enable-background:new    ;}
	.st11{opacity:0.4;fill:#7E2131;enable-background:new    ;}
	.st12{opacity:0.4;fill:#9C3BAC;enable-background:new    ;}
	.st13{fill:#FFFFFF;}
</style>
<path class="st0" d="M125.4,99.8c0,11-9,20-20,20H49.9c-11,0-20-9-20-20V44.3c0-11,9-20,20-20h55.4c11,0,20,9,20,20L125.4,99.8
	L125.4,99.8z"/>
<path class="st1" d="M125.4,206.4c0,11-9,20-20,20H49.9c-11,0-20-9-20-20V151c0-11,9-20,20-20h55.4c11,0,20,9,20,20L125.4,206.4
	L125.4,206.4z"/>
<path class="st2" d="M537.3,333H49.9c-11,0-20-9-20-20v-55.4c0-11,9-20,20-20h487.4c11,0,20,9,20,20V313
	C557.3,324,548.4,333,537.3,333z"/>
<path class="st3" d="M429.3,439.6H49.9c-11,0-20-9-20-20v-55.4c0-11,9-20,20-20h379.4c11,0,20,9,20,20v55.4
	C449.3,430.6,440.4,439.6,429.3,439.6z"/>
<path class="st4" d="M1293.3,439.6H481.9c-11,0-20-9-20-20v-55.4c0-11,9-20,20-20h811.4c11,0,20,9,20,20v55.4
	C1313.3,430.6,1304.3,439.6,1293.3,439.6z"/>
<path class="st5" d="M969.3,119.8H589.9c-11,0-20-9-20-20V44.3c0-11,9-20,20-20h379.4c11,0,20,9,20,20v55.4
	C989.3,110.8,980.4,119.8,969.3,119.8z"/>
<path class="st6" d="M1421.3,419.6c0,11-9,20-20,20h-55.4c-11,0-20-9-20-20v-55.4c0-11,9-20,20-20h55.4c11,0,20,9,20,20V419.6z"/>
<path class="st7" d="M2049.3,439.6h-595.4c-11,0-20-9-20-20v-55.4c0-11,9-20,20-20h595.4c11,0,20,9,20,20v55.4
	C2069.3,430.6,2060.3,439.6,2049.3,439.6z"/>
<path class="st8" d="M1617.3,119.8h-589.1c-11,0-20-9-20-20V44.3c0-11,9-20,20-20h589.1c11,0,20,9,20,20v55.4
	C1637.3,110.8,1628.3,119.8,1617.3,119.8z"/>
<path class="st9" d="M1745.3,99.8c0,11-9,20-20,20h-55.4c-11,0-20-9-20-20V44.3c0-11,9-20,20-20h55.4c11,0,20,9,20,20V99.8z"/>
<path class="st10" d="M2049.3,119.8h-271.4c-11,0-20-9-20-20V44.3c0-11,9-20,20-20h271.4c11,0,20,9,20,20v55.4
	C2069.3,110.8,2060.3,119.8,2049.3,119.8z"/>
<path class="st11" d="M2069.3,206.4c0,11-9,20-20,20h-55.4c-11,0-20-9-20-20V151c0-11,9-20,20-20h55.4c11,0,20,9,20,20V206.4z"/>
<path class="st12" d="M2069.3,313c0,11-9,20-20,20h-55.4c-11,0-20-9-20-20v-55.4c0-11,9-20,20-20h55.4c11,0,20,9,20,20V313z"/>
<g>
	<path class="st13" d="M138.8,184.5V24h24.3v156.3c0,7.6,2.1,13.6,6.3,18s9.7,6.6,16.6,6.6v22.6
		C154.5,227.5,138.8,213.1,138.8,184.5z"/>
	<path class="st13" d="M225.9,224.8V103.6h-18.8V82.3h43.1v142.4h-24.3L225.9,224.8L225.9,224.8z M239.2,28.5
		c4.2,0,7.7,1.5,10.7,4.6c2.9,3.1,4.4,6.7,4.4,11s-1.5,8-4.4,11.1s-6.5,4.6-10.7,4.6c-4.1,0-7.6-1.5-10.5-4.6s-4.4-6.8-4.4-11.1
		s1.4-8,4.3-11C231.4,30,235,28.5,239.2,28.5z"/>
	<path class="st13" d="M373,224.8v-82.9c0-15.2-2.2-25.8-6.6-31.9s-11.7-9.1-22.1-9.1c-5.5,0-11.3,1.7-17.4,5.2s-10.7,7.7-13.9,12.8
		v105.9h-24.3V82.3h16.6l7.7,18.4c8-14,21.1-21,39.2-21c30,0,45,19,45,56.9v88.2H373z"/>
	<path class="st13" d="M547.1,156h-98.7c0,16.7,4.4,29.5,13.2,38.4c7.8,7.8,17.7,11.7,29.9,11.7c13.9,0,25.5-4.2,34.8-12.6
		l10.2,18.2c-3.8,3.9-9.5,7.3-17.3,10.1c-9.7,3.7-20.5,5.6-32.5,5.6c-17.2,0-31.8-6.1-43.8-18.2c-13.4-13.4-20.1-31.4-20.1-54
		c0-23.5,6.9-42.3,20.6-56.5c12.3-12.7,26.8-19,43.6-19c19.5,0,34.8,5.7,45.9,17.2c10.7,11,16.1,25.6,16.1,43.8
		C549,146.2,548.4,151.3,547.1,156z M488.2,101c-10.8,0-19.9,3.6-27.2,10.9c-7,6.9-11,15.5-11.9,25.8h75.8c0-10.2-3.1-18.7-9.2-25.5
		C508.9,104.7,499.8,101,488.2,101z"/>
</g>
<g>
	<path class="st13" d="M672.2,332.8v-10.5c-8.8,8.8-21.5,13.2-38.3,13.2c-17.8,0-32.3-6.4-43.4-19.2c-11.1-12.8-16.6-29.8-16.6-51.1
		c0-21.4,6.4-39.6,19.2-54.7c12.8-15.1,28-22.7,45.6-22.7c14.7,0,25.9,3.5,33.5,10.4v-66.1h25.3v200.7H672.2z M672.2,223.5
		c-6.4-9.6-15.1-14.4-26.2-14.4c-13.6,0-24.5,5.1-32.9,15.2c-8.4,10.1-12.6,23-12.6,38.6c0,34.3,15.6,51.5,46.8,51.5
		c4,0,8.8-1.3,14.4-3.8c5.6-2.5,9.1-5.2,10.5-8V223.5z"/>
	<path class="st13" d="M745.8,333V211.8h-19.6v-21.3H771V333H745.8z M759.7,136.7c4.3,0,8,1.5,11.1,4.6s4.6,6.7,4.6,11
		s-1.5,8-4.6,11.1s-6.8,4.6-11.1,4.6s-7.9-1.5-11-4.6s-4.6-6.8-4.6-11.1s1.5-8,4.5-11C751.6,138.2,755.3,136.7,759.7,136.7z"/>
	<path class="st13" d="M802,324.5l8.9-23.9c14.1,9.2,25.4,13.8,34,13.8c15.6,0,23.4-6.6,23.4-19.7c0-9.4-7.5-17.5-22.6-24.2
		c-11.6-5.3-19.4-9.4-23.5-12.1c-4-2.7-7.5-5.9-10.5-9.4s-5.2-7.2-6.7-11.2c-1.5-3.9-2.2-8.2-2.2-12.7c0-11.7,4.3-20.8,12.8-27.4
		c8.5-6.6,19.6-9.8,33.4-9.8c10.4,0,23.5,3.3,39.2,9.8l-7.2,23.4c-10-8-20.1-12-30.2-12c-6,0-11.1,1.4-15.2,4.3
		c-4.1,2.8-6.2,6.4-6.2,10.8c0,9.1,5.2,16,15.6,20.7l18.1,8.2c11.1,5.1,19.2,10.8,24.2,17.3c5.1,6.5,7.6,14.6,7.6,24.3
		c0,12.8-4.5,22.8-13.4,30c-9,7.2-21.4,10.8-37.2,10.8C829.3,335.6,815.2,331.9,802,324.5z"/>
	<path class="st13" d="M930.6,210.5h-16.5v-20h16.5v-29.8l25.3-9.7v39.5H995v20h-39.1v70.8c0,12,2,20.5,6.1,25.5
		c4,5.1,10.5,7.6,19.5,7.6c6.5,0,13.2-1.6,20.1-4.9l3.7,22.2c-10.5,2.7-21.9,4-34.4,4c-11.3,0-20.8-4.2-28.5-12.6
		c-7.8-8.4-11.6-19-11.6-31.7v-80.9H930.6z"/>
	<path class="st13" d="M1106.9,214.9c-5.5-3.8-11-5.7-16.6-5.7c-9,0-16.8,4.1-23.5,12.4c-6.7,8.2-10,18.2-10,29.8V333h-25.3V190.5
		h25.3v22.7c9.2-16.9,22.9-25.4,41.1-25.4c4.5,0,11,0.8,19.6,2.4L1106.9,214.9z"/>
	<path class="st13" d="M1147.6,333V211.8H1128v-21.3h44.8V333H1147.6z M1161.5,136.7c4.3,0,8,1.5,11.1,4.6s4.6,6.7,4.6,11
		s-1.5,8-4.6,11.1s-6.8,4.6-11.1,4.6c-4.3,0-7.9-1.5-11-4.6s-4.6-6.8-4.6-11.1s1.5-8,4.5-11C1153.5,138.2,1157.1,136.7,1161.5,136.7
		z"/>
	<path class="st13" d="M1234.6,322.7l-8.9,12.9h-12.6V132.1h25.3V201c2.4-3.3,6.9-6.3,13.5-9s13.1-4.1,19.5-4.1
		c19.5,0,35.3,6.7,47.4,20.2s18.2,30.5,18.2,51.1c0,23.8-6.1,42.5-18.2,56.1s-28.6,20.4-49.3,20.4c-6.7,0-13.4-1.3-19.9-3.8
		C1242.9,329.3,1238,326.3,1234.6,322.7z M1238.4,220.3v82.2c0,1.4,3.1,3.7,9.4,7c6.3,3.2,11.1,4.9,14.4,4.9
		c17.2,0,29.5-4.1,37-12.4s11.2-22.1,11.2-41.5c0-16.1-4.3-28.7-13-37.8c-8.7-9-20.4-13.6-35.1-13.6c-3.1,0-7.4,1.3-13,4
		C1243.7,215.8,1240,218.2,1238.4,220.3z"/>
	<path class="st13" d="M1388.8,190.5v90.8c0,22,9.5,33,28.6,33c8.3,0,16-2.4,22.9-7.2s11.5-10.3,13.7-16.6v-100h25.3V333H1454v-19.7
		c-2.8,5.6-8.5,10.7-17.1,15.4c-8.6,4.7-16.9,7-25.1,7c-15.6,0-27.6-4.5-35.8-13.4c-8.3-9-12.4-21.7-12.4-38.2v-93.5L1388.8,190.5
		L1388.8,190.5z"/>
	<path class="st13" d="M1522.7,210.5h-16.5v-20h16.5v-29.8l25.3-9.7v39.5h39.1v20H1548v70.8c0,12,2,20.5,6.1,25.5
		c4,5.1,10.5,7.6,19.5,7.6c6.5,0,13.2-1.6,20.1-4.9l3.7,22.2c-10.5,2.7-21.9,4-34.4,4c-11.3,0-20.8-4.2-28.5-12.6
		c-7.8-8.4-11.6-19-11.6-31.7v-80.9H1522.7z"/>
	<path class="st13" d="M1633.9,333V211.8h-19.6v-21.3h44.8V333H1633.9z M1647.7,136.7c4.3,0,8,1.5,11.1,4.6s4.6,6.7,4.6,11
		s-1.5,8-4.6,11.1s-6.8,4.6-11.1,4.6c-4.3,0-7.9-1.5-11-4.6s-4.6-6.8-4.6-11.1s1.5-8,4.5-11C1639.7,138.2,1643.4,136.7,1647.7,136.7
		z"/>
	<path class="st13" d="M1690,261.4c0-22,5.9-39.7,17.8-53.3c11.8-13.5,27.4-20.3,46.8-20.3c20.4,0,36.2,6.5,47.5,19.5
		s16.9,31,16.9,54.1c0,23-5.8,41.1-17.3,54.3c-11.5,13.3-27.2,19.9-47.1,19.9c-20.3,0-36.1-6.7-47.5-20.1
		C1695.7,302.2,1690,284.1,1690,261.4z M1716.6,261.4c0,35.7,12.6,53.6,37.9,53.6c11.8,0,21-4.8,27.7-14.4s10-22.7,10-39.2
		c0-35.3-12.6-52.9-37.8-52.9c-11.5,0-20.7,4.7-27.6,14.1C1720.1,232,1716.6,244.9,1716.6,261.4z"/>
	<path class="st13" d="M1933.2,333v-82.9c0-15.2-2.3-25.8-6.8-31.9c-4.6-6.1-12.2-9.1-22.9-9.1c-5.8,0-11.8,1.7-18.1,5.2
		c-6.3,3.5-11.1,7.7-14.5,12.8V333h-25.3V190.5h17.3l8,18.4c8.3-14,21.9-21,40.8-21c31.2,0,46.8,19,46.8,56.9V333H1933.2z"/>
</g>
</svg>
